<svg opacity=".5" fill="#fff" xmlns="http://www.w3.org/2000/svg" viewBox="-754.5 -222 1541.5 862.2" enable-background="new -754.5 -222 1541.5 862.2"><path opacity=".1" enable-background="new" d="M140.9 66.4l-6.9-29.3 21.8-20.6 28.8 8.6 6.9 29.3-21.9 20.6-28.7-8.6z"/><path opacity=".15" enable-background="new" d="M178.2 105.7l-6.9-29.2 21.8-20.6 28.7 8.6 6.9 29.2-21.8 20.6-28.7-8.6z"/><path opacity=".3" enable-background="new" d="M125.4 118.1l-6.9-29.2 21.8-20.6 28.8 8.6 6.9 29.2-21.9 20.6-28.7-8.6z"/><path opacity=".1" enable-background="new" d="M162.7 157.4l-6.9-29.2 21.8-20.6 28.7 8.6 6.9 29.2-21.8 20.6-28.7-8.6z"/><path opacity=".3" enable-background="new" d="M230.9 93.3l-6.9-29.2 21.9-20.6 28.7 8.6 6.9 29.2-21.8 20.6-28.8-8.6z"/><path opacity=".1" enable-background="new" d="M268.2 132.7l-6.9-29.2 21.8-20.6 28.8 8.6 6.9 29.2-21.8 20.6-28.8-8.6z"/><path opacity=".05" enable-background="new" d="M215.4 146l-6.9-29.2 21.9-20.6 28.7 8.6 6.9 29.3-21.8 20.6-28.8-8.7z"/><path opacity=".25" enable-background="new" d="M252.7 184.4l-6.9-29.2 21.8-20.6 28.8 8.6 6.9 29.2-21.8 20.6-28.8-8.6z"/><path opacity=".3" enable-background="new" d="M200 196.8l-7-29.2 21.9-20.6 28.7 8.6 6.9 29.2-21.8 20.6-28.7-8.6z"/><path opacity=".35" enable-background="new" d="M237.2 236.1l-6.9-29.2 21.9-20.6 28.7 8.6 6.9 29.2-21.8 20.6-28.8-8.6z"/><path opacity=".15" enable-background="new" d="M184.5 248.5l-6.9-29.2 21.8-20.6 28.7 8.6 6.9 29.2-21.8 20.6-28.7-8.6z"/><path opacity=".4" enable-background="new" d="M221.7 287.9l-6.9-29.3 21.9-20.6 28.7 8.7 6.9 29.2-21.8 20.6-28.8-8.6z"/><path opacity=".05" enable-background="new" d="M290 223.7l-6.9-29.2 21.8-20.6 28.8 8.6 6.9 29.3-21.9 20.6-28.7-8.7z"/><path opacity=".1" enable-background="new" d="M327.3 263.1l-6.9-29.2 21.8-20.6 28.7 8.6 6.9 29.2-21.8 20.6-28.7-8.6z"/><path opacity=".15" enable-background="new" d="M274.5 275.5l-6.9-29.2 21.8-20.6 28.8 8.6 6.9 29.2-21.9 20.6-28.7-8.6z"/><path opacity=".25" enable-background="new" d="M311.8 314.8l-6.9-29.2 21.8-20.6 28.7 8.6 7 29.2-21.9 20.6-28.7-8.6z"/><path opacity=".15" enable-background="new" d="M321 120.3l-6.9-29.2 21.8-20.6 28.7 8.6 7 29.2-21.9 20.6-28.7-8.6z"/><path opacity=".25" enable-background="new" d="M358.3 159.6l-6.9-29.2 21.8-20.6 28.7 8.6 6.9 29.2-21.8 20.6-28.7-8.6z"/><path opacity=".3" enable-background="new" d="M305.5 172l-6.9-29.2 21.8-20.6 28.8 8.6 6.9 29.2-21.9 20.6-28.7-8.6z"/><path opacity=".15" enable-background="new" d="M342.8 211.4l-6.9-29.2 21.8-20.6 28.7 8.6 6.9 29.2-21.8 20.6-28.7-8.6z"/><path opacity=".25" enable-background="new" d="M380 250.7l-6.9-29.2 21.9-20.6 28.7 8.6 6.9 29.2-21.8 20.6-28.8-8.6z"/><path opacity=".35" enable-background="new" d="M364.6 302.4l-7-29.2 21.9-20.6 28.7 8.6 6.9 29.3-21.8 20.6-28.7-8.7z"/><path opacity=".25" enable-background="new" d="M432.8 238.3l-6.9-29.2 21.8-20.6 28.8 8.6 6.9 29.2-21.8 20.6-28.8-8.6z"/><path opacity=".1" enable-background="new" d="M470.1 277.7l-6.9-29.2 21.8-20.6 28.8 8.6 6.9 29.2-21.9 20.6-28.7-8.6z"/><path opacity=".05" enable-background="new" d="M417.3 290.1l-6.9-29.2 21.8-20.6 28.8 8.6 6.9 29.2-21.8 20.6-28.8-8.6z"/><path opacity=".35" enable-background="new" d="M454.6 329.4l-6.9-29.2 21.8-20.6 28.8 8.6 6.9 29.2-21.9 20.6-28.7-8.6z"/><path opacity=".05" enable-background="new" d="M411 148.3l-6.9-29.3 21.9-20.6 28.7 8.7 6.9 29.2-21.8 20.6-28.8-8.6z"/><path opacity=".3" enable-background="new" d="M395.5 199l-6.9-29.2 21.9-20.6 28.7 8.6 6.9 29.2-21.8 20.6-28.8-8.6z"/><path opacity=".4" enable-background="new" d="M463.8 134.9l-6.9-29.2 21.8-20.6 28.8 8.6 6.9 29.2-21.9 20.6-28.7-8.6z"/><path opacity=".1" enable-background="new" d="M501.1 174.2l-6.9-29.2 21.8-20.6 28.7 8.6 7 29.2-21.9 20.6-28.7-8.6z"/><path opacity=".35" enable-background="new" d="M448.3 186.6l-6.9-29.2 21.8-20.6 28.8 8.6 6.9 29.2-21.8 20.6-28.8-8.6z"/><path opacity=".15" enable-background="new" d="M485.6 226l-6.9-29.3 21.8-20.6 28.7 8.7 7 29.2-21.9 20.6-28.7-8.6zm-375.7-56.2l-6.9-29.2 21.8-20.6 28.8 8.6 6.9 29.2-21.9 20.6-28.7-8.6z"/><path opacity=".05" enable-background="new" d="M147.2 210.2l-6.9-29.3 21.8-20.6 28.7 8.7 7 29.2-21.9 20.6-28.7-8.6z"/><path opacity=".35" enable-background="new" d="M94.4 221.5l-6.9-29.2 21.8-20.6 28.8 8.6 6.9 29.2-21.8 20.6-28.8-8.6z"/><path opacity=".1" enable-background="new" d="M131.7 260.9l-6.9-29.2 21.8-20.6 28.7 8.6 7 29.2-21.9 20.6-28.7-8.6z"/><path opacity=".15" enable-background="new" d="M171.9-37.1l-6.9-29.2 21.8-20.6 28.7 8.6 6.9 29.2-21.8 20.6-28.7-8.6zm37.3 39.3l-7-29.2 21.9-20.6 28.7 8.6 6.9 29.2-21.8 20.6-28.7-8.6z"/><path opacity=".05" enable-background="new" d="M156.4 15.6l-6.9-29.2 21.8-20.6 28.7 8.6 7 29.2-21.9 20.6-28.7-8.6z"/><path opacity=".25" enable-background="new" d="M193.7 54l-6.9-29.2 21.8-20.6 28.7 8.6 6.9 29.2-21.8 20.6-28.7-8.6z"/><path opacity=".15" enable-background="new" d="M261.9-10.1l-6.9-29.2 21.8-20.7 28.8 8.7 6.9 29.2-21.8 20.6-28.8-8.6zm37.3 39.3l-6.9-29.2 21.8-20.6 28.8 8.6 6.9 29.2-21.9 20.6-28.7-8.6z"/><path opacity=".35" enable-background="new" d="M246.4 41.6l-6.9-29.2 21.9-20.6 28.7 8.6 6.9 29.2-21.8 20.6-28.8-8.6z"/><path opacity=".05" enable-background="new" d="M283.7 80.9l-6.9-29.2 21.8-20.6 28.8 8.6 6.9 29.2-21.8 20.6-28.8-8.6z"/><path opacity=".25" enable-background="new" d="M352 16.8l-6.9-29.2 21.8-20.6 28.7 8.6 6.9 29.2-21.8 20.6-28.7-8.6z"/><path opacity=".4" enable-background="new" d="M336.5 68.6l-6.9-29.2 21.8-20.7 28.7 8.7 6.9 29.2-21.8 20.6-28.7-8.6z"/><path opacity=".1" enable-background="new" d="M404.7 4.5l-6.9-29.3 21.9-20.6 28.7 8.6 6.9 29.3-21.8 20.6-28.8-8.6z"/><path opacity=".4" enable-background="new" d="M442 43.8l-6.9-29.2 21.8-20.6 28.8 8.6 6.9 29.2-21.8 20.6-28.8-8.6z"/><path opacity=".05" enable-background="new" d="M389.3 56.2l-7-29.2 21.9-20.6 28.7 8.6 6.9 29.2-21.8 20.6-28.7-8.6z"/><path opacity=".25" enable-background="new" d="M426.5 95.5l-6.9-29.2 21.8-20.6 28.8 8.6 6.9 29.2-21.8 20.6-28.8-8.6z"/><path opacity=".15" enable-background="new" d="M494.8 31.4l-6.9-29.2 21.8-20.6 28.8 8.6 6.9 29.2-21.9 20.6-28.7-8.6z"/><path opacity=".25" enable-background="new" d="M532.1 70.8l-6.9-29.2 21.8-20.6 28.7 8.6 6.9 29.2-21.8 20.6-28.7-8.6z"/><path opacity=".1" enable-background="new" d="M479.3 83.2l-6.9-29.3 21.8-20.6 28.8 8.6 6.9 29.3-21.9 20.6-28.7-8.6z"/><path opacity=".05" enable-background="new" d="M516.6 122.5l-6.9-29.2 21.8-20.6 28.7 8.6 6.9 29.2-21.8 20.6-28.7-8.6z"/><path opacity=".35" enable-background="new" d="M584.8 58.4l-6.9-29.2 21.9-20.6 28.7 8.6 6.9 29.2-21.8 20.6-28.8-8.6z"/><path opacity=".3" enable-background="new" d="M569.3 110.1l-6.9-29.2 21.9-20.6 28.7 8.6 6.9 29.2-21.8 20.6-28.8-8.6z"/><path opacity=".1" enable-background="new" d="M373.8 107.9l-7-29.2 21.9-20.6 28.7 8.6 6.9 29.2-21.8 20.6-28.7-8.6z"/><path opacity=".15" enable-background="new" d="M103.6 27l-6.9-29.2 21.8-20.6 28.8 8.6 6.9 29.2-21.8 20.6-28.8-8.6z"/><path opacity=".05" enable-background="new" d="M88.1 79.7l-6.9-29.2 21.8-20.6 28.8 8.6 6.9 29.2-21.8 20.6-28.8-8.6z"/><path opacity=".25" enable-background="new" d="M72.6 130.5l-6.9-29.3 21.8-20.6 28.8 8.7 6.9 29.2-21.8 20.6-28.8-8.6z"/><path opacity=".05" enable-background="new" d="M57.1 182.2l-6.9-29.2 21.9-20.6 28.7 8.6 6.9 29.2-21.8 20.6-28.8-8.6z"/><path opacity=".15" enable-background="new" d="M134.6-76.5l-6.9-29.2 21.8-20.6 28.8 8.6 6.9 29.2-21.9 20.6-28.7-8.6zm-15.5 51.8l-6.9-29.2 21.8-20.6 28.8 8.6 6.9 29.2-21.9 20.6-28.7-8.6z"/><path opacity=".25" enable-background="new" d="M50.8 39.4l-6.9-29.2 21.9-20.6 28.7 8.6 6.9 29.2-21.8 20.6-28.8-8.6z"/><path opacity=".1" enable-background="new" d="M35.4 91.1l-7-29.2 21.9-20.6 28.7 8.6 6.9 29.2-21.8 20.6-28.7-8.6z"/><path opacity=".35" enable-background="new" d="M19.9 142.8l-7-29.2 21.9-20.6 28.7 8.6 6.9 29.2-21.8 20.6-28.7-8.6z"/><path opacity=".25" enable-background="new" d="M4.4 194.6l-6.9-29.2 21.8-20.6 28.7 8.6 6.9 29.2-21.8 20.6-28.7-8.6z"/><path opacity=".15" enable-background="new" d="M81.8-64.1l-6.9-29.2 21.9-20.6 28.7 8.6 6.9 29.2-21.8 20.6-28.8-8.6zm-15.5 51.8l-6.9-29.3 21.9-20.6 28.7 8.6 6.9 29.3-21.8 20.6-28.8-8.6z"/><path opacity=".1" enable-background="new" d="M41.6 233.9l-6.9-29.2 21.9-20.6 28.7 8.6 6.9 29.2-21.8 20.6-28.8-8.6z"/><path opacity=".3" enable-background="new" d="M491.9 368.8l-6.9-29.2 21.8-20.6 28.7 8.6 6.9 29.2-21.8 20.6-28.7-8.6z"/><path opacity=".4" enable-background="new" d="M476.4 420.5l-6.9-29.2 21.8-20.6 28.7 8.6 7 29.2-21.9 20.6-28.7-8.6z"/><path opacity=".35" enable-background="new" d="M522.9 265.3l-6.9-29.2 21.8-20.6 28.7 8.6 6.9 29.2-21.8 20.6-28.7-8.6z"/><path opacity=".25" enable-background="new" d="M507.4 317l-6.9-29.2 21.8-20.6 28.7 8.6 6.9 29.2-21.8 20.6-28.7-8.6z"/><path opacity=".35" enable-background="new" d="M553.9 161.9l-7-29.3 21.9-20.6 28.7 8.6 6.9 29.3-21.8 20.6-28.7-8.6z"/><path opacity=".25" enable-background="new" d="M538.4 213.6l-6.9-29.2 21.8-20.6 28.7 8.6 6.9 29.2-21.8 20.6-28.7-8.6z"/><path opacity=".35" enable-background="new" d="M169 300.2l-6.9-29.2 21.8-20.6 28.7 8.6 6.9 29.2-21.8 20.6-28.7-8.6z"/><path opacity=".25" enable-background="new" d="M206.2 339.6l-6.9-29.2 21.9-20.6 28.7 8.6 6.9 29.2-21.8 20.6-28.8-8.6z"/><path opacity=".3" enable-background="new" d="M153.5 352l-6.9-29.2 21.8-20.6 28.7 8.6 6.9 29.2-21.8 20.6-28.7-8.6z"/><path opacity=".15" enable-background="new" d="M190.8 391.3l-7-29.2 21.9-20.6 28.7 8.6 6.9 29.2-21.8 20.6-28.7-8.6z"/><path opacity=".3" enable-background="new" d="M259 327.2l-6.9-29.2 21.8-20.6 28.8 8.6 6.9 29.2-21.8 20.6-28.8-8.6z"/><path opacity=".05" enable-background="new" d="M296.3 365.6l-6.9-29.3 21.8-20.6 28.8 8.7 6.9 29.2-21.9 20.6-28.7-8.6z"/><path opacity=".1" enable-background="new" d="M243.5 378.9l-6.9-29.2 21.8-20.6 28.8 8.6 6.9 29.2-21.8 20.6-28.8-8.6z"/><path opacity=".35" enable-background="new" d="M280.8 418.3l-6.9-29.2 21.8-20.6 28.8 8.6 6.9 29.2-21.9 20.6-28.7-8.6z"/><path opacity=".15" enable-background="new" d="M349.1 354.2l-6.9-29.2 21.8-20.6 28.7 8.6 6.9 29.2-21.8 20.6-28.7-8.6z"/><path opacity=".4" enable-background="new" d="M333.6 405.9l-6.9-29.2 21.8-20.6 28.7 8.6 6.9 29.2-21.8 20.6-28.7-8.6z"/><path opacity=".05" enable-background="new" d="M439.1 381.1l-6.9-29.2 21.8-20.6 28.8 8.6 6.9 29.3-21.9 20.6-28.7-8.7z"/><path opacity=".25" enable-background="new" d="M386.3 393.5l-6.9-29.2 21.9-20.6 28.7 8.6 6.9 29.2-21.8 20.6-28.8-8.6z"/><path opacity=".15" enable-background="new" d="M423.6 432.9l-6.9-29.2 21.8-20.6 28.8 8.6 6.9 29.2-21.8 20.6-28.8-8.6z"/><path opacity=".25" enable-background="new" d="M78.9 273.3l-6.9-29.2 21.8-20.6 28.8 8.6 6.9 29.2-21.8 20.6-28.8-8.6z"/><path opacity=".05" enable-background="new" d="M116.2 313.6l-6.9-29.2 21.8-20.6 28.8 8.6 6.9 29.2-21.9 20.6-28.7-8.6z"/><path opacity=".3" enable-background="new" d="M63.4 325l-6.9-29.2 21.8-20.6 28.8 8.6 6.9 29.2-21.8 20.6-28.8-8.6z"/><path opacity=".35" enable-background="new" d="M100.7 364.3l-6.9-29.2 21.8-20.6 28.8 8.6 6.9 29.3-21.9 20.6-28.7-8.7z"/><path opacity=".15" enable-background="new" d="M26.1 285.6l-6.9-29.2 21.9-20.6 28.7 8.6 6.9 29.3-21.8 20.6-28.8-8.7z"/><path opacity=".35" enable-background="new" d="M-11.1 246.3l-6.9-29.2 21.8-20.6 28.7 8.6 6.9 29.2-21.8 20.6-28.7-8.6z"/><path opacity=".25" enable-background="new" d="M-26.6 298l-6.9-29.2 21.8-20.6 28.7 8.6 6.9 29.2-21.8 20.6-28.7-8.6z"/><path opacity=".05" enable-background="new" d="M10.7 338.4l-7-29.2 21.9-20.6 28.7 8.6 6.9 29.2-21.8 20.6-28.7-8.6z"/><path opacity=".1" enable-background="new" d="M401.8 341.8l-6.9-29.2 21.9-20.6 28.7 8.6 6.9 29.2-21.8 20.6-28.8-8.6z"/><path opacity=".15" enable-background="new" d="M224.7-49.5l-7-29.2 21.9-20.6 28.7 8.6 6.9 29.2-21.8 20.6-28.7-8.6z"/><path opacity=".05" enable-background="new" d="M314.7-22.5l-6.9-29.2 21.8-20.6 28.8 8.6 6.9 29.2-21.9 20.6-28.7-8.6z"/><path opacity=".3" enable-background="new" d="M560.1 304.7l-6.9-29.3 21.9-20.6 28.7 8.7 6.9 29.2-21.8 20.6-28.8-8.6z"/><path opacity=".05" enable-background="new" d="M597.4 345l-6.9-29.2 21.8-20.6 28.8 8.6 6.9 29.2-21.8 20.6-28.8-8.6z"/><path opacity=".1" enable-background="new" d="M544.7 356.4l-7-29.2 21.9-20.6 28.7 8.6 6.9 29.2-21.8 20.6-28.7-8.6z"/><path opacity=".15" enable-background="new" d="M581.9 395.7l-6.9-29.2 21.8-20.6 28.8 8.6 6.9 29.2-21.8 20.6-28.8-8.6z"/><path opacity=".05" enable-background="new" d="M591.1 201.2l-6.9-29.2 21.9-20.6 28.7 8.6 6.9 29.2-21.8 20.6-28.8-8.6z"/><path opacity=".4" enable-background="new" d="M628.4 240.6l-6.9-29.3 21.8-20.6 28.8 8.6 6.9 29.3-21.9 20.6-28.7-8.6zm-52.8 12.3l-6.9-29.2 21.9-20.6 28.7 8.6 6.9 29.2-21.8 20.6-28.8-8.6z"/><path opacity=".1" enable-background="new" d="M612.9 292.3l-6.9-29.2 21.8-20.6 28.8 8.6 6.9 29.2-21.8 20.6-28.8-8.6z"/><path opacity=".15" enable-background="new" d="M622.1 97.7l-6.9-29.2 21.8-20.6 28.8 8.6 6.9 29.2-21.8 20.6-28.8-8.6z"/><path opacity=".05" enable-background="new" d="M659.4 137.1l-6.9-29.2 21.8-20.6 28.8 8.6 6.9 29.2-21.9 20.6-28.7-8.6z"/><path opacity=".1" enable-background="new" d="M606.6 149.5l-6.9-29.2 21.8-20.6 28.8 8.6 6.9 29.2-21.8 20.6-28.8-8.6z"/><path opacity=".25" enable-background="new" d="M643.9 188.8l-6.9-29.2 21.8-20.6 28.8 8.6 6.9 29.2-21.9 20.6-28.7-8.6z"/><path opacity=".35" enable-background="new" d="M712.2 124.7l-6.9-29.2 21.8-20.6 28.7 8.6 6.9 29.2-21.8 20.6-28.7-8.6z"/><path opacity=".3" enable-background="new" d="M696.7 176.4l-6.9-29.2 21.8-20.6 28.7 8.6 6.9 29.2-21.8 20.6-28.7-8.6z"/><path opacity=".1" enable-background="new" d="M619.2 435.1l-6.9-29.2 21.8-20.6 28.8 8.6 6.9 29.2-21.9 20.6-28.7-8.6z"/><path opacity=".05" enable-background="new" d="M603.7 486.8l-6.9-29.2 21.8-20.6 28.8 8.6 6.9 29.2-21.8 20.6-28.8-8.6z"/><path opacity=".25" enable-background="new" d="M650.2 331.6l-6.9-29.2 21.8-20.6 28.8 8.6 6.9 29.2-21.9 20.6-28.7-8.6z"/><path opacity=".35" enable-background="new" d="M634.7 383.4l-6.9-29.3 21.8-20.6 28.8 8.7 6.9 29.2-21.9 20.6-28.7-8.6z"/><path opacity=".15" enable-background="new" d="M681.2 228.2l-6.9-29.2 21.8-20.6 28.7 8.6 6.9 29.2-21.8 20.6-28.7-8.6z"/><path opacity=".05" enable-background="new" d="M665.7 279.9l-6.9-29.2 21.8-20.6 28.7 8.6 7 29.2-21.9 20.6-28.7-8.6z"/><path opacity=".25" enable-background="new" d="M566.4 447.5l-6.9-29.2 21.9-20.6 28.7 8.6 6.9 29.2-21.8 20.6-28.8-8.6z"/><path opacity=".05" enable-background="new" d="M513.7 460.8l-6.9-29.2 21.8-20.6 28.7 8.6 6.9 29.3-21.8 20.6-28.7-8.7z"/><path opacity=".3" enable-background="new" d="M550.9 499.2l-6.9-29.2 21.9-20.6 28.7 8.6 6.9 29.2-21.8 20.6-28.8-8.6z"/><path opacity=".35" enable-background="new" d="M529.2 408.1l-7-29.2 21.9-20.6 28.7 8.6 6.9 29.2-21.8 20.6-28.7-8.6z"/><path opacity=".25" enable-background="new" d="M674.9 85.4l-6.9-29.2 21.8-20.7 28.7 8.7 7 29.2-21.9 20.6-28.7-8.6z"/><path opacity=".05" enable-background="new" d="M625.5 578.9l-6.9-29.2 21.8-20.6 28.8 8.6 6.9 29.2-21.9 20.6-28.7-8.6z"/><path opacity=".25" enable-background="new" d="M610 629.6l-6.9-29.2 21.8-20.6 28.8 8.6 6.9 29.2-21.9 20.6-28.7-8.6z"/><path opacity=".35" enable-background="new" d="M656.5 474.4l-6.9-29.2 21.8-20.6 28.7 8.6 7 29.2-21.9 20.6-28.7-8.6z"/><path opacity=".1" enable-background="new" d="M641 526.2l-6.9-29.2 21.8-20.6 28.7 8.6 7 29.2-21.9 20.6-28.7-8.6z"/><path opacity=".15" enable-background="new" d="M687.5 371l-6.9-29.2 21.8-20.6 28.7 8.6 6.9 29.2-21.8 20.6-28.7-8.6z"/><path opacity=".3" enable-background="new" d="M672 422.7l-6.9-29.2 21.8-20.6 28.7 8.6 6.9 29.2-21.8 20.6-28.7-8.6zm68.2-64.1l-6.9-29.2 21.9-20.6 28.7 8.6 6.9 29.2-21.8 20.6-28.8-8.6z"/><path opacity=".05" enable-background="new" d="M724.7 411.3l-6.9-29.2 21.9-20.6 28.7 8.6 6.9 29.2-21.8 20.6-28.8-8.6z"/><path opacity=".15" enable-background="new" d="M647.3 669l-6.9-29.2 21.8-20.6 28.7 8.6 6.9 29.2-21.8 20.6-28.7-8.6zm-15.5 51.7l-6.9-29.2 21.8-20.6 28.7 8.6 7 29.2-21.9 20.6-28.7-8.6z"/><path opacity=".3" enable-background="new" d="M678.3 565.5l-6.9-29.2 21.8-20.6 28.7 8.6 6.9 29.2-21.8 20.6-28.7-8.6z"/><path opacity=".15" enable-background="new" d="M662.8 617.2l-6.9-29.2 21.8-20.6 28.7 8.6 6.9 29.3-21.8 20.6-28.7-8.7zm46.5-155.1l-7-29.3 21.9-20.6 28.7 8.7 6.9 29.2-21.8 20.6-28.7-8.6z"/><path opacity=".25" enable-background="new" d="M693.8 513.8l-6.9-29.2 21.8-20.6 28.7 8.6 6.9 29.2-21.8 20.6-28.7-8.6z"/><path opacity=".15" enable-background="new" d="M594.5 681.4l-6.9-29.3 21.8-20.6 28.8 8.7 6.9 29.2-21.9 20.6-28.7-8.6z"/><path opacity=".35" enable-background="new" d="M703 319.3l-6.9-29.3 21.8-20.6 28.7 8.6 6.9 29.3-21.8 20.6-28.7-8.6z"/><path opacity=".25" enable-background="new" d="M764.9 112.3l-6.9-29.2 21.9-20.6 28.7 8.6 6.9 29.2-21.8 20.6-28.8-8.6z"/><path opacity=".15" enable-background="new" d="M749.4 164.1l-6.9-29.2 21.9-20.7 28.7 8.7 6.9 29.2-21.8 20.6-28.8-8.6z"/><path opacity=".25" enable-background="new" d="M786.7 203.4l-6.9-29.2 21.8-20.6 28.8 8.6 6.9 29.2-21.8 20.6-28.8-8.6z"/><path opacity=".15" enable-background="new" d="M771.2 255.1l-6.9-29.2 21.8-20.6 28.8 8.6 6.9 29.2-21.8 20.6-28.8-8.6zm31-103.4l-6.9-29.2 21.8-20.6 28.8 8.6 6.9 29.2-21.8 20.6-28.8-8.6z"/><path opacity=".05" enable-background="new" d="M734 215.8l-7-29.2 21.9-20.6 28.7 8.6 6.9 29.2-21.8 20.6-28.7-8.6z"/><path opacity=".4" enable-background="new" d="M718.5 267.5l-7-29.2 21.9-20.6 28.7 8.6 6.9 29.2-21.8 20.6-28.7-8.6z"/><path opacity=".35" enable-background="new" d="M483.6 563.6l-6.9-29.2 21.9-20.6 28.7 8.6 6.9 29.2-21.8 20.6-28.8-8.6z"/><path opacity=".25" enable-background="new" d="M468.1 615.3l-6.9-29.2 21.9-20.6 28.7 8.6 6.9 29.2-21.8 20.6-28.8-8.6z"/><path opacity=".1" enable-background="new" d="M499.1 511.9l-6.9-29.2 21.8-20.6 28.8 8.6 6.9 29.2-21.8 20.6-28.8-8.6z"/><path opacity=".15" enable-background="new" d="M505.4 654.7l-6.9-29.2 21.8-20.6 28.8 8.6 6.9 29.2-21.8 20.6-28.8-8.6zm31-103.5l-6.9-29.2 21.8-20.6 28.8 8.6 6.9 29.2-21.9 20.6-28.7-8.6z"/><path opacity=".4" enable-background="new" d="M520.9 602.9l-6.9-29.2 21.8-20.6 28.8 8.6 6.9 29.2-21.8 20.7-28.8-8.7z"/><path opacity=".15" enable-background="new" d="M452.6 667.1l-6.9-29.3 21.9-20.6 28.7 8.6 6.9 29.3-21.8 20.6-28.8-8.6zm-97.2-170.1l-7-29.2 21.9-20.6 28.7 8.6 6.9 29.2-21.8 20.6-28.7-8.6z"/><path opacity=".1" enable-background="new" d="M339.9 548.7l-6.9-29.2 21.8-20.6 28.7 8.6 6.9 29.2-21.8 20.6-28.7-8.6zm30.9-103.4l-6.9-29.3 21.9-20.6 28.7 8.7 6.9 29.2-21.8 20.6-28.8-8.6z"/><path opacity=".35" enable-background="new" d="M377.1 588.1l-6.9-29.2 21.9-20.6 28.7 8.6 6.9 29.2-21.8 20.6-28.8-8.6z"/><path opacity=".1" enable-background="new" d="M361.6 639.8l-6.9-29.2 21.9-20.6 28.7 8.6 6.9 29.2-21.8 20.6-28.8-8.6z"/><path opacity=".25" enable-background="new" d="M408.1 484.6l-6.9-29.2 21.8-20.6 28.8 8.6 6.9 29.2-21.8 20.6-28.8-8.6z"/><path opacity=".3" enable-background="new" d="M392.6 536.3l-6.9-29.2 21.8-20.6 28.8 8.6 6.9 29.2-21.8 20.6-28.8-8.6zm-68.2 64.1l-6.9-29.2 21.8-20.6 28.7 8.6 6.9 29.3-21.8 20.6-28.7-8.7z"/><path opacity=".25" enable-background="new" d="M588.2 538.5l-6.9-29.2 21.8-20.6 28.8 8.6 6.9 29.3-21.8 20.6-28.8-8.7z"/><path opacity=".35" enable-background="new" d="M572.7 590.3l-6.9-29.2 21.8-20.6 28.8 8.6 6.9 29.2-21.8 20.6-28.8-8.6z"/><path opacity=".05" enable-background="new" d="M557.2 643l-6.9-29.2 21.9-20.6 28.7 8.6 6.9 29.2-21.8 20.6-28.8-8.6z"/><path opacity=".15" enable-background="new" d="M542.7 694l-6.9-29.2 21.8-20.6 28.8 8.6 6.9 29.2-21.9 20.6-28.7-8.6z"/><path opacity=".25" enable-background="new" d="M138 403.7l-6.9-29.2 21.8-20.6 28.7 8.6 6.9 29.2-21.8 20.6-28.7-8.6z"/><path opacity=".4" enable-background="new" d="M175.3 443l-7-29.2 21.9-20.6 28.7 8.6 6.9 29.3-21.8 20.6-28.7-8.7z"/><path opacity=".1" enable-background="new" d="M122.5 455.4l-6.9-29.2 21.8-20.6 28.7 8.6 7 29.2-21.9 20.6-28.7-8.6z"/><path opacity=".25" enable-background="new" d="M159.8 494.8l-6.9-29.2 21.8-20.6 28.7 8.6 6.9 29.2-21.8 20.6-28.7-8.6z"/><path opacity=".05" enable-background="new" d="M228 430.7l-6.9-29.2 21.8-20.6 28.8 8.6 6.9 29.2-21.8 20.6-28.8-8.6z"/><path opacity=".25" enable-background="new" d="M265.3 470l-6.9-29.2 21.8-20.6 28.8 8.6 6.9 29.2-21.9 20.6-28.7-8.6z"/><path opacity=".3" enable-background="new" d="M212.5 482.4l-6.9-29.2 21.9-20.6 28.7 8.6 6.9 29.2-21.8 20.6-28.8-8.6z"/><path opacity=".1" enable-background="new" d="M249.8 521.7l-6.9-29.2 21.8-20.6 28.8 8.6 6.9 29.3-21.8 20.6-28.8-8.7z"/><path opacity=".05" enable-background="new" d="M318.1 457.6l-6.9-29.2 21.8-20.6 28.7 8.6 6.9 29.2-21.8 20.6-28.7-8.6zm-15.5 51.8l-6.9-29.2 21.8-20.6 28.7 8.6 7 29.2-21.9 20.6-28.7-8.6z"/><path opacity=".25" enable-background="new" d="M47.9 376.7l-6.9-29.2 21.9-20.6 28.7 8.6 6.9 29.2-21.8 20.6-28.8-8.6z"/><path opacity=".15" enable-background="new" d="M85.2 416.1l-6.9-29.2 21.8-20.6 28.8 8.6 6.9 29.2-21.9 20.6-28.7-8.6z"/><path opacity=".3" enable-background="new" d="M32.4 428.5l-6.9-29.3 21.9-20.6 28.7 8.7 6.9 29.2-21.8 20.6-28.8-8.6z"/><path opacity=".05" enable-background="new" d="M69.7 468.8l-6.9-29.2 21.8-20.6 28.8 8.6 6.9 29.2-21.8 20.6-28.8-8.6z"/><path opacity=".15" enable-background="new" d="M-4.8 389.1l-6.9-29.2 21.8-20.6 28.7 8.6 6.9 29.2-21.8 20.6-28.7-8.6z"/><path opacity=".1" enable-background="new" d="M-42.1 349.8l-6.9-29.3 21.8-20.6 28.7 8.7 7 29.2-21.9 20.6-28.7-8.6z"/><path opacity=".05" enable-background="new" d="M-57.6 402.5l-6.9-29.2 21.8-20.6 28.7 8.6 7 29.2-21.9 20.6-28.7-8.6z"/><path opacity=".25" enable-background="new" d="M-20.3 440.8l-6.9-29.2 21.8-20.6 28.7 8.6 6.9 29.2-21.8 20.6-28.7-8.6z"/><path opacity=".05" enable-background="new" d="M107.7 508.4l-6.9-29.2 21.8-20.6 28.7 8.6 6.9 29.2-21.8 20.6-28.7-8.6z"/><path opacity=".1" enable-background="new" d="M144.9 547.8l-6.9-29.3 21.9-20.6 28.7 8.6 6.9 29.3-21.8 20.6-28.8-8.6z"/><path opacity=".15" enable-background="new" d="M92.2 560.1l-6.9-29.2 21.8-20.6 28.7 8.6 6.9 29.2-21.8 20.6-28.7-8.6z"/><path opacity=".05" enable-background="new" d="M197.7 534.4l-6.9-29.2 21.8-20.6 28.8 8.6 6.9 29.2-21.8 20.6-28.8-8.6z"/><path opacity=".25" enable-background="new" d="M235 574.7l-6.9-29.2 21.8-20.6 28.7 8.6 7 29.2-21.9 20.6-28.7-8.6z"/><path opacity=".15" enable-background="new" d="M182.2 587.1l-6.9-29.2 21.8-20.6 28.8 8.6 6.9 29.2-21.8 20.6-28.8-8.6zm105.6-24.8l-6.9-29.2 21.8-20.6 28.7 8.6 6.9 29.2-21.8 20.6-28.7-8.6z"/><path opacity=".35" enable-background="new" d="M272.3 614.1l-6.9-29.2 21.8-20.6 28.7 8.6 6.9 29.2-21.8 20.6-28.7-8.6z"/><path opacity=".15" enable-background="new" d="M17.6 481.4l-6.9-29.2 21.8-20.6 28.8 8.6 6.9 29.2-21.8 20.6-28.8-8.6z"/><path opacity=".25" enable-background="new" d="M54.9 520.8l-6.9-29.2 21.8-20.6 28.8 8.6 6.9 29.2-21.9 20.6-28.7-8.6z"/><path opacity=".35" enable-background="new" d="M2.1 533.2l-6.9-29.2 21.8-20.7 28.8 8.7 6.9 29.2-21.8 20.6-28.8-8.6z"/><path opacity=".15" enable-background="new" d="M-35.2 493.8l-6.9-29.2 21.9-20.6 28.7 8.6 6.9 29.2-21.8 20.6-28.8-8.6zm-37.2-39.3l-6.9-29.2 21.8-20.7 28.7 8.7 6.9 29.2-21.8 20.6-28.7-8.6zm-15.5 51.7l-6.9-29.2 21.8-20.6 28.7 8.6 6.9 29.2-21.8 20.6-28.7-8.6z"/><path opacity=".25" enable-background="new" d="M755.7 306.9l-6.9-29.2 21.9-20.6 28.7 8.6 6.9 29.2-21.8 20.6-28.8-8.6z"/><path opacity=".05" enable-background="new" d="M731 554.1l-6.9-29.2 21.9-20.6 28.7 8.6 6.9 29.2-21.8 20.6-28.8-8.6z"/><path opacity=".35" enable-background="new" d="M715.5 604.9l-6.9-29.2 21.9-20.6 28.7 8.6 6.9 29.2-21.8 20.6-28.8-8.6z"/><path opacity=".15" enable-background="new" d="M700.1 656.6l-7-29.2 21.9-20.6 28.7 8.6 6.9 29.2-21.8 20.6-28.7-8.6zm-15.5 51.7l-7-29.2 21.9-20.6 28.7 8.6 6.9 29.2-21.8 20.6-28.7-8.6z"/><path opacity=".1" enable-background="new" d="M777.5 397.9l-6.9-29.2 21.8-20.6 28.8 8.6 6.9 29.3-21.8 20.6-28.8-8.7z"/><path opacity=".35" enable-background="new" d="M762 449.7l-6.9-29.2 21.8-20.6 28.8 8.6 6.9 29.2-21.8 20.6-28.8-8.6z"/><path opacity=".15" enable-background="new" d="M808.5 294.5l-6.9-29.2 21.8-20.6 28.8 8.6 6.9 29.2-21.9 20.6-28.7-8.6z"/><path opacity=".05" enable-background="new" d="M793 346.2l-6.9-29.2 21.8-20.6 28.8 8.6 6.9 29.2-21.8 20.6-28.8-8.6z"/><path opacity=".1" enable-background="new" d="M746.5 501.4l-6.9-29.2 21.9-20.6 28.7 8.6 6.9 29.2-21.8 20.6-28.8-8.6z"/><path opacity=".15" enable-background="new" d="M823.7 243.7l-6.9-29.2 21.8-20.6 28.8 8.6 6.9 29.2-21.8 20.6-28.8-8.6zm31-103.4l-6.9-29.3 21.8-20.6 28.8 8.7 6.9 29.2-21.9 20.6-28.7-8.6z"/><path opacity=".05" enable-background="new" d="M839.2 192l-6.9-29.2 21.8-20.6 28.8 8.6 6.9 29.2-21.9 20.6-28.7-8.6z"/><path opacity=".35" enable-background="new" d="M460.9 472.2l-6.9-29.2 21.8-20.6 28.8 8.6 6.9 29.2-21.9 20.6-28.7-8.6z"/><path opacity=".05" enable-background="new" d="M446.4 524.2l-7-29.2 21.9-20.6 28.7 8.6 6.9 29.2-21.8 20.7-28.7-8.7z"/><path opacity=".4" enable-background="new" d="M430.9 576l-6.9-29.2 21.8-20.6 28.7 8.6 6.9 29.2-21.8 20.6-28.7-8.6z"/><path opacity=".15" enable-background="new" d="M414.4 627.4l-6.9-29.2 21.8-20.6 28.8 8.6 6.9 29.2-21.8 20.6-28.8-8.6zm5.4-675l-6.9-29.2 21.8-20.6 28.8 8.6 6.9 29.2-21.9 20.6-28.7-8.6zm37.3 39.4l-6.9-29.2 21.8-20.6 28.7 8.6 6.9 29.2-21.8 20.6-28.7-8.6zm52.7-12.4l-6.9-29.2 21.9-20.6 28.7 8.6 6.9 29.2-21.8 20.6-28.8-8.6z"/><path opacity=".05" enable-background="new" d="M547.1 18.7l-6.9-29.2 21.8-20.6 28.8 8.6 6.9 29.2-21.8 20.6-28.8-8.6z"/><path opacity=".1" enable-background="new" d="M637.2 45.7l-6.9-29.2 21.8-20.6 28.7 8.6 6.9 29.2-21.8 20.6-28.7-8.6zm-37.3-39.3l-6.9-29.2 21.8-20.7 28.7 8.7 7 29.2-21.9 20.6-28.7-8.6z"/><path opacity=".05" enable-background="new" d="M689.9 33.3l-6.9-29.2 21.9-20.6 28.7 8.6 6.9 29.2-21.8 20.6-28.8-8.6z"/><path opacity=".35" enable-background="new" d="M727.2 72.7l-6.9-29.2 21.8-20.6 28.8 8.6 6.9 29.2-21.8 20.6-28.8-8.6z"/><path opacity=".05" enable-background="new" d="M779.7 61.3l-6.9-29.3 21.8-20.6 28.8 8.7 6.9 29.2-21.9 20.6-28.7-8.6z"/><path opacity=".15" enable-background="new" d="M742.9 21.3l-6.9-29.2 21.9-20.6 28.7 8.6 6.9 29.2-21.8 20.6-28.8-8.6z"/><path opacity=".05" enable-background="new" d="M-2.2 53.4l-6.9-29.2 21.9-20.6 28.7 8.6 6.9 29.2-21.8 20.6-28.8-8.6z"/><path opacity=".25" enable-background="new" d="M-17.6 104.1l-7-29.2 21.9-20.6 28.7 8.6 6.9 29.2-21.8 20.6-28.7-8.6z"/><path opacity=".1" enable-background="new" d="M-33.1 155.8l-7-29.2 21.9-20.6 28.7 8.6 6.9 29.2-21.8 20.6-28.7-8.6z"/><path opacity=".3" enable-background="new" d="M128.9 599.8l-6.9-29.3 21.9-20.6 28.7 8.6 6.9 29.3-21.8 20.6-28.8-8.6z"/><path opacity=".35" enable-background="new" d="M76.2 612.1l-6.9-29.2 21.8-20.6 28.7 8.6 6.9 29.2-21.8 20.6-28.7-8.6z"/><path opacity=".4" enable-background="new" d="M166.2 639.1l-6.9-29.2 21.8-20.6 28.8 8.6 6.9 29.2-21.8 20.6-28.8-8.6z"/><path opacity=".1" enable-background="new" d="M38.9 572.8l-6.9-29.2 21.8-20.6 28.8 8.6 6.9 29.2-21.9 20.6-28.7-8.6z"/><path opacity=".15" enable-background="new" d="M-13.9 585.2l-6.9-29.2 21.8-20.7 28.8 8.7 6.9 29.2-21.8 20.6-28.8-8.6z"/><path opacity=".25" enable-background="new" d="M23.2 625.1l-6.9-29.2 21.8-20.6 28.8 8.6 6.9 29.2-21.8 20.6-28.8-8.6z"/><path opacity=".1" enable-background="new" d="M219.2 627.1l-6.9-29.2 21.8-20.6 28.8 8.6 6.9 29.2-21.8 20.6-28.8-8.6z"/><path opacity=".4" enable-background="new" d="M768 592.1l-6.9-29.2 21.9-20.6 28.7 8.6 6.9 29.2-21.8 20.6-28.8-8.6z"/><path opacity=".25" enable-background="new" d="M752.5 643.9l-6.9-29.2 21.9-20.6 28.7 8.6 6.9 29.2-21.8 20.6-28.8-8.6z"/><path opacity=".15" enable-background="new" d="M783.5 540.4l-6.9-29.2 21.9-20.6 28.7 8.6 6.9 29.2-21.8 20.6-28.8-8.6z"/><path opacity=".1" enable-background="new" d="M-701.1-71.6l-6.9-29.3 21.8-20.6 28.8 8.6 6.9 29.3-21.9 20.6-28.7-8.6z"/><path opacity=".15" enable-background="new" d="M-663.8-32.3l-6.9-29.2 21.8-20.6 28.7 8.6 6.9 29.2-21.8 20.6-28.7-8.6z"/><path opacity=".3" enable-background="new" d="M-716.6-19.9l-6.9-29.2 21.8-20.6 28.8 8.6 6.9 29.2-21.9 20.6-28.7-8.6z"/><path opacity=".1" enable-background="new" d="M-679.3 19.4l-6.9-29.2 21.8-20.6 28.7 8.6 6.9 29.2-21.8 20.6-28.7-8.6z"/><path opacity=".3" enable-background="new" d="M-611.1-44.7l-6.9-29.2 21.9-20.6 28.7 8.6 6.9 29.2-21.8 20.6-28.8-8.6z"/><path opacity=".1" enable-background="new" d="M-573.8-5.3l-6.9-29.2 21.8-20.6 28.8 8.6 6.9 29.2-21.8 20.6-28.8-8.6z"/><path opacity=".05" enable-background="new" d="M-626.6 8l-6.9-29.2 21.9-20.6 28.7 8.6 6.9 29.3-21.8 20.6-28.8-8.7z"/><path opacity=".25" enable-background="new" d="M-589.3 46.4l-6.9-29.2 21.8-20.6 28.8 8.6 6.9 29.2-21.8 20.6-28.8-8.6z"/><path opacity=".3" enable-background="new" d="M-642 58.8l-7-29.2 21.9-20.6 28.7 8.6 6.9 29.2-21.8 20.6-28.7-8.6z"/><path opacity=".35" enable-background="new" d="M-604.8 98.1l-6.9-29.2 21.9-20.6 28.7 8.6 6.9 29.2-21.8 20.6-28.8-8.6z"/><path opacity=".15" enable-background="new" d="M-657.5 110.5l-6.9-29.2 21.8-20.6 28.7 8.6 6.9 29.2-21.8 20.6-28.7-8.6z"/><path opacity=".4" enable-background="new" d="M-620.3 149.9l-6.9-29.3 21.9-20.6 28.7 8.7 6.9 29.2-21.8 20.6-28.8-8.6z"/><path opacity=".05" enable-background="new" d="M-552 85.7l-6.9-29.2 21.8-20.6 28.8 8.6 6.9 29.3-21.9 20.6-28.7-8.7z"/><path opacity=".1" enable-background="new" d="M-514.7 125.1l-6.9-29.2 21.8-20.6 28.7 8.6 6.9 29.2-21.8 20.6-28.7-8.6z"/><path opacity=".15" enable-background="new" d="M-567.5 137.5l-6.9-29.2 21.8-20.6 28.8 8.6 6.9 29.2-21.9 20.6-28.7-8.6z"/><path opacity=".25" enable-background="new" d="M-530.2 176.8l-6.9-29.2 21.8-20.6 28.7 8.6 7 29.2-21.9 20.6-28.7-8.6z"/><path opacity=".15" enable-background="new" d="M-521-17.7l-6.9-29.2 21.8-20.6 28.7 8.6 7 29.2-21.9 20.6-28.7-8.6z"/><path opacity=".25" enable-background="new" d="M-483.7 21.6l-6.9-29.2 21.8-20.6 28.7 8.6 6.9 29.2-21.8 20.6-28.7-8.6z"/><path opacity=".3" enable-background="new" d="M-536.5 34l-6.9-29.2 21.8-20.6 28.8 8.6 6.9 29.2-21.9 20.6-28.7-8.6z"/><path opacity=".15" enable-background="new" d="M-499.2 73.4l-6.9-29.2 21.8-20.6 28.7 8.6 6.9 29.2-21.8 20.6-28.7-8.6z"/><path opacity=".25" enable-background="new" d="M-462 112.7l-6.9-29.2 21.9-20.6 28.7 8.6 6.9 29.2-21.8 20.6-28.8-8.6z"/><path opacity=".35" enable-background="new" d="M-477.4 164.4l-7-29.2 21.9-20.6 28.7 8.6 6.9 29.3-21.8 20.6-28.7-8.7z"/><path opacity=".25" enable-background="new" d="M-409.2 100.3l-6.9-29.2 21.8-20.6 28.8 8.6 6.9 29.2-21.8 20.6-28.8-8.6z"/><path opacity=".1" enable-background="new" d="M-371.9 139.7l-6.9-29.2 21.8-20.6 28.8 8.6 6.9 29.2-21.9 20.6-28.7-8.6z"/><path opacity=".05" enable-background="new" d="M-424.7 152.1l-6.9-29.2 21.8-20.6 28.8 8.6 6.9 29.2-21.8 20.6-28.8-8.6z"/><path opacity=".35" enable-background="new" d="M-387.4 191.4l-6.9-29.2 21.8-20.6 28.8 8.6 6.9 29.2-21.9 20.6-28.7-8.6z"/><path opacity=".05" enable-background="new" d="M-431 10.3l-6.9-29.3 21.9-20.6 28.7 8.7 6.9 29.2-21.8 20.6-28.8-8.6z"/><path opacity=".3" enable-background="new" d="M-446.5 61l-6.9-29.2 21.9-20.6 28.7 8.6 6.9 29.2-21.8 20.6-28.8-8.6z"/><path opacity=".4" enable-background="new" d="M-378.2-3.1l-6.9-29.2 21.8-20.6 28.8 8.6 6.9 29.2-21.9 20.6-28.7-8.6z"/><path opacity=".1" enable-background="new" d="M-340.9 36.2l-6.9-29.2 21.8-20.6 28.7 8.6 7 29.2-21.9 20.6-28.7-8.6z"/><path opacity=".35" enable-background="new" d="M-393.7 48.6l-6.9-29.2 21.8-20.6 28.8 8.6 6.9 29.2-21.8 20.6-28.8-8.6z"/><path opacity=".15" enable-background="new" d="M-356.4 88l-6.9-29.3 21.8-20.6 28.7 8.7 7 29.2-21.9 20.6-28.7-8.6zm-375.7-56.2l-6.9-29.2 21.8-20.6 28.8 8.6 6.9 29.2-21.9 20.6-28.7-8.6z"/><path opacity=".05" enable-background="new" d="M-694.8 72.2l-6.9-29.3 21.8-20.6 28.7 8.7 7 29.2-21.9 20.6-28.7-8.6z"/><path opacity=".35" enable-background="new" d="M-747.6 83.5l-6.9-29.2 21.8-20.6 28.8 8.6 6.9 29.2-21.8 20.6-28.8-8.6z"/><path opacity=".1" enable-background="new" d="M-710.3 122.9l-6.9-29.2 21.8-20.6 28.7 8.6 7 29.2-21.9 20.6-28.7-8.6z"/><path opacity=".15" enable-background="new" d="M-670.1-175.1l-6.9-29.2 21.8-20.6 28.7 8.6 6.9 29.2-21.8 20.6-28.7-8.6zm37.3 39.3l-7-29.2 21.9-20.6 28.7 8.6 6.9 29.2-21.8 20.6-28.7-8.6z"/><path opacity=".05" enable-background="new" d="M-685.6-122.4l-6.9-29.2 21.8-20.6 28.7 8.6 7 29.2-21.9 20.6-28.7-8.6z"/><path opacity=".25" enable-background="new" d="M-648.3-84l-6.9-29.2 21.8-20.6 28.7 8.6 6.9 29.2-21.8 20.6-28.7-8.6z"/><path opacity=".15" enable-background="new" d="M-580.1-148.1l-6.9-29.2 21.8-20.7 28.8 8.7 6.9 29.2-21.8 20.6-28.8-8.6zm37.3 39.3l-6.9-29.2 21.8-20.6 28.8 8.6 6.9 29.2-21.9 20.6-28.7-8.6z"/><path opacity=".35" enable-background="new" d="M-595.6-96.4l-6.9-29.2 21.9-20.6 28.7 8.6 6.9 29.2-21.8 20.6-28.8-8.6z"/><path opacity=".05" enable-background="new" d="M-558.3-57.1l-6.9-29.2 21.8-20.6 28.8 8.6 6.9 29.2-21.8 20.6-28.8-8.6z"/><path opacity=".25" enable-background="new" d="M-490-121.2l-6.9-29.2 21.8-20.6 28.7 8.6 6.9 29.2-21.8 20.6-28.7-8.6z"/><path opacity=".4" enable-background="new" d="M-505.5-69.4l-6.9-29.2 21.8-20.7 28.7 8.7 6.9 29.2-21.8 20.6-28.7-8.6z"/><path opacity=".1" enable-background="new" d="M-437.3-133.5l-6.9-29.3 21.9-20.6 28.7 8.6 6.9 29.3-21.8 20.6-28.8-8.6z"/><path opacity=".4" enable-background="new" d="M-400-94.2l-6.9-29.2 21.8-20.6 28.8 8.6 6.9 29.2-21.8 20.6-28.8-8.6z"/><path opacity=".05" enable-background="new" d="M-452.7-81.8l-7-29.2 21.9-20.6 28.7 8.6 6.9 29.2-21.8 20.6-28.7-8.6z"/><path opacity=".25" enable-background="new" d="M-415.5-42.5l-6.9-29.2 21.8-20.6 28.8 8.6 6.9 29.2-21.8 20.6-28.8-8.6z"/><path opacity=".15" enable-background="new" d="M-347.2-106.6l-6.9-29.2 21.8-20.6 28.8 8.6 6.9 29.2-21.9 20.6-28.7-8.6z"/><path opacity=".25" enable-background="new" d="M-309.9-67.2l-6.9-29.2 21.8-20.6 28.7 8.6 6.9 29.2-21.8 20.6-28.7-8.6z"/><path opacity=".1" enable-background="new" d="M-362.7-54.8l-6.9-29.3 21.8-20.6 28.8 8.6 6.9 29.3-21.9 20.6-28.7-8.6z"/><path opacity=".05" enable-background="new" d="M-325.4-15.5l-6.9-29.2 21.8-20.6 28.7 8.6 6.9 29.2-21.8 20.6-28.7-8.6z"/><path opacity=".35" enable-background="new" d="M-257.2-79.6l-6.9-29.2 21.9-20.6 28.7 8.6 6.9 29.2-21.8 20.6-28.8-8.6z"/><path opacity=".3" enable-background="new" d="M-272.7-27.9l-6.9-29.2 21.9-20.6 28.7 8.6 6.9 29.2-21.8 20.6-28.8-8.6z"/><path opacity=".1" enable-background="new" d="M-468.2-30.1l-7-29.2 21.9-20.6 28.7 8.6 6.9 29.2-21.8 20.6-28.7-8.6z"/><path opacity=".15" enable-background="new" d="M-738.4-111l-6.9-29.2 21.8-20.6 28.8 8.6 6.9 29.2-21.8 20.6-28.8-8.6z"/><path opacity=".05" enable-background="new" d="M-753.9-58.3l-6.9-29.2 21.8-20.6 28.8 8.6 6.9 29.2-21.8 20.6-28.8-8.6z"/><path opacity=".25" enable-background="new" d="M-769.4-7.5l-6.9-29.3 21.8-20.6 28.8 8.7 6.9 29.2-21.8 20.6-28.8-8.6z"/><path opacity=".05" enable-background="new" d="M-784.9 44.2l-6.9-29.2 21.9-20.6 28.7 8.6 6.9 29.2-21.8 20.6-28.8-8.6z"/><path opacity=".15" enable-background="new" d="M-707.4-214.5l-6.9-29.2 21.8-20.6 28.8 8.6 6.9 29.2-21.9 20.6-28.7-8.6zm-15.5 51.8l-6.9-29.2 21.8-20.6 28.8 8.6 6.9 29.2-21.9 20.6-28.7-8.6z"/><path opacity=".25" enable-background="new" d="M-791.2-98.6l-6.9-29.2 21.9-20.6 28.7 8.6 6.9 29.2-21.8 20.6-28.8-8.6z"/><path opacity=".1" enable-background="new" d="M-806.6-46.9l-7-29.2 21.9-20.6 28.7 8.6 6.9 29.2-21.8 20.6-28.7-8.6z"/><path opacity=".35" enable-background="new" d="M-822.1 4.8l-7-29.2 21.9-20.6 28.7 8.6 6.9 29.2-21.8 20.6-28.7-8.6z"/><path opacity=".25" enable-background="new" d="M-837.6 56.6l-6.9-29.2 21.8-20.6 28.7 8.6 6.9 29.2-21.8 20.6-28.7-8.6z"/><path opacity=".15" enable-background="new" d="M-760.2-202.1l-6.9-29.2 21.9-20.6 28.7 8.6 6.9 29.2-21.8 20.6-28.8-8.6zm-15.5 51.8l-6.9-29.3 21.9-20.6 28.7 8.6 6.9 29.3-21.8 20.6-28.8-8.6z"/><path opacity=".1" enable-background="new" d="M-800.4 95.9l-6.9-29.2 21.9-20.6 28.7 8.6 6.9 29.2-21.8 20.6-28.8-8.6z"/><path opacity=".3" enable-background="new" d="M-350.1 230.8l-6.9-29.2 21.8-20.6 28.7 8.6 6.9 29.2-21.8 20.6-28.7-8.6z"/><path opacity=".4" enable-background="new" d="M-365.6 282.5l-6.9-29.2 21.8-20.6 28.7 8.6 7 29.2-21.9 20.6-28.7-8.6z"/><path opacity=".35" enable-background="new" d="M-319.1 127.3l-6.9-29.2 21.8-20.6 28.7 8.6 6.9 29.2-21.8 20.6-28.7-8.6z"/><path opacity=".25" enable-background="new" d="M-334.6 179l-6.9-29.2 21.8-20.6 28.7 8.6 6.9 29.2-21.8 20.6-28.7-8.6z"/><path opacity=".35" enable-background="new" d="M-288.1 23.9l-7-29.3 21.9-20.6 28.7 8.6 6.9 29.3-21.8 20.6-28.7-8.6z"/><path opacity=".25" enable-background="new" d="M-303.6 75.6l-6.9-29.2 21.8-20.6 28.7 8.6 6.9 29.2-21.8 20.6-28.7-8.6z"/><path opacity=".35" enable-background="new" d="M-673 162.2l-6.9-29.2 21.8-20.6 28.7 8.6 6.9 29.2-21.8 20.6-28.7-8.6z"/><path opacity=".25" enable-background="new" d="M-635.8 201.6l-6.9-29.2 21.9-20.6 28.7 8.6 6.9 29.2-21.8 20.6-28.8-8.6z"/><path opacity=".3" enable-background="new" d="M-688.5 214l-6.9-29.2 21.8-20.6 28.7 8.6 6.9 29.2-21.8 20.6-28.7-8.6z"/><path opacity=".15" enable-background="new" d="M-651.2 253.3l-7-29.2 21.9-20.6 28.7 8.6 6.9 29.2-21.8 20.6-28.7-8.6z"/><path opacity=".3" enable-background="new" d="M-583 189.2l-6.9-29.2 21.8-20.6 28.8 8.6 6.9 29.2-21.8 20.6-28.8-8.6z"/><path opacity=".05" enable-background="new" d="M-545.7 227.6l-6.9-29.3 21.8-20.6 28.8 8.7 6.9 29.2-21.9 20.6-28.7-8.6z"/><path opacity=".1" enable-background="new" d="M-598.5 240.9l-6.9-29.2 21.8-20.6 28.8 8.6 6.9 29.2-21.8 20.6-28.8-8.6z"/><path opacity=".35" enable-background="new" d="M-561.2 280.3l-6.9-29.2 21.8-20.6 28.8 8.6 6.9 29.2-21.9 20.6-28.7-8.6z"/><path opacity=".15" enable-background="new" d="M-492.9 216.2l-6.9-29.2 21.8-20.6 28.7 8.6 6.9 29.2-21.8 20.6-28.7-8.6z"/><path opacity=".4" enable-background="new" d="M-508.4 267.9l-6.9-29.2 21.8-20.6 28.7 8.6 6.9 29.2-21.8 20.6-28.7-8.6z"/><path opacity=".05" enable-background="new" d="M-402.9 243.1l-6.9-29.2 21.8-20.6 28.8 8.6 6.9 29.3-21.9 20.6-28.7-8.7z"/><path opacity=".25" enable-background="new" d="M-455.7 255.5l-6.9-29.2 21.9-20.6 28.7 8.6 6.9 29.2-21.8 20.6-28.8-8.6z"/><path opacity=".15" enable-background="new" d="M-418.4 294.9l-6.9-29.2 21.8-20.6 28.8 8.6 6.9 29.2-21.8 20.6-28.8-8.6z"/><path opacity=".25" enable-background="new" d="M-763.1 135.3l-6.9-29.2 21.8-20.6 28.8 8.6 6.9 29.2-21.8 20.6-28.8-8.6z"/><path opacity=".05" enable-background="new" d="M-725.8 175.6l-6.9-29.2 21.8-20.6 28.8 8.6 6.9 29.2-21.9 20.6-28.7-8.6z"/><path opacity=".3" enable-background="new" d="M-778.6 187l-6.9-29.2 21.8-20.6 28.8 8.6 6.9 29.2-21.8 20.6-28.8-8.6z"/><path opacity=".35" enable-background="new" d="M-741.3 226.3l-6.9-29.2 21.8-20.6 28.8 8.6 6.9 29.3-21.9 20.6-28.7-8.7z"/><path opacity=".15" enable-background="new" d="M-815.9 147.6l-6.9-29.2 21.9-20.6 28.7 8.6 6.9 29.3-21.8 20.6-28.8-8.7z"/><path opacity=".35" enable-background="new" d="M-853.1 108.3l-6.9-29.2 21.8-20.6 28.7 8.6 6.9 29.2-21.8 20.6-28.7-8.6z"/><path opacity=".25" enable-background="new" d="M-868.6 160l-6.9-29.2 21.8-20.6 28.7 8.6 6.9 29.2-21.8 20.6-28.7-8.6z"/><path opacity=".05" enable-background="new" d="M-831.3 200.4l-7-29.2 21.9-20.6 28.7 8.6 6.9 29.2-21.8 20.6-28.7-8.6z"/><path opacity=".1" enable-background="new" d="M-440.2 203.8l-6.9-29.2 21.9-20.6 28.7 8.6 6.9 29.2-21.8 20.6-28.8-8.6z"/><path opacity=".15" enable-background="new" d="M-617.3-187.5l-7-29.2 21.9-20.6 28.7 8.6 6.9 29.2-21.8 20.6-28.7-8.6z"/><path opacity=".05" enable-background="new" d="M-527.3-160.5l-6.9-29.2 21.8-20.6 28.8 8.6 6.9 29.2-21.9 20.6-28.7-8.6z"/><path opacity=".3" enable-background="new" d="M-281.9 166.7l-6.9-29.3 21.9-20.6 28.7 8.7 6.9 29.2-21.8 20.6-28.8-8.6z"/><path opacity=".05" enable-background="new" d="M-244.6 207l-6.9-29.2 21.8-20.6 28.8 8.6 6.9 29.2-21.8 20.6-28.8-8.6z"/><path opacity=".1" enable-background="new" d="M-297.3 218.4l-7-29.2 21.9-20.6 28.7 8.6 6.9 29.2-21.8 20.6-28.7-8.6z"/><path opacity=".15" enable-background="new" d="M-260.1 257.7l-6.9-29.2 21.8-20.6 28.8 8.6 6.9 29.2-21.8 20.6-28.8-8.6z"/><path opacity=".05" enable-background="new" d="M-250.9 63.2l-6.9-29.2 21.9-20.6 28.7 8.6 6.9 29.2-21.8 20.6-28.8-8.6z"/><path opacity=".4" enable-background="new" d="M-213.6 102.6l-6.9-29.3 21.8-20.6 28.8 8.6 6.9 29.3-21.9 20.6-28.7-8.6zm-52.8 12.3l-6.9-29.2 21.9-20.6 28.7 8.6 6.9 29.2-21.8 20.6-28.8-8.6z"/><path opacity=".1" enable-background="new" d="M-229.1 154.3l-6.9-29.2 21.8-20.6 28.8 8.6 6.9 29.2-21.8 20.6-28.8-8.6z"/><path opacity=".15" enable-background="new" d="M-219.9-40.3l-6.9-29.2 21.8-20.6 28.8 8.6 6.9 29.2-21.8 20.6-28.8-8.6z"/><path opacity=".05" enable-background="new" d="M-182.6-.9l-6.9-29.2 21.8-20.6 28.8 8.6 6.9 29.2-21.9 20.6-28.7-8.6z"/><path opacity=".1" enable-background="new" d="M-235.4 11.5l-6.9-29.2 21.8-20.6 28.8 8.6 6.9 29.2-21.8 20.6-28.8-8.6z"/><path opacity=".25" enable-background="new" d="M-198.1 50.8l-6.9-29.2 21.8-20.6 28.8 8.6 6.9 29.2-21.9 20.6-28.7-8.6z"/><path opacity=".35" enable-background="new" d="M-129.8-13.3l-6.9-29.2 21.8-20.6 28.7 8.6 6.9 29.2-21.8 20.6-28.7-8.6z"/><path opacity=".3" enable-background="new" d="M-145.3 38.4l-6.9-29.2 21.8-20.6 28.7 8.6 6.9 29.2-21.8 20.6-28.7-8.6z"/><path opacity=".1" enable-background="new" d="M-222.8 297.1l-6.9-29.2 21.8-20.6 28.8 8.6 6.9 29.2-21.9 20.6-28.7-8.6z"/><path opacity=".05" enable-background="new" d="M-238.3 348.8l-6.9-29.2 21.8-20.6 28.8 8.6 6.9 29.2-21.8 20.6-28.8-8.6z"/><path opacity=".25" enable-background="new" d="M-191.8 193.6l-6.9-29.2 21.8-20.6 28.8 8.6 6.9 29.2-21.9 20.6-28.7-8.6z"/><path opacity=".35" enable-background="new" d="M-207.3 245.4l-6.9-29.3 21.8-20.6 28.8 8.7 6.9 29.2-21.9 20.6-28.7-8.6z"/><path opacity=".15" enable-background="new" d="M-160.8 90.2l-6.9-29.2 21.8-20.6 28.7 8.6 6.9 29.2-21.8 20.6-28.7-8.6z"/><path opacity=".05" enable-background="new" d="M-176.3 141.9l-6.9-29.2 21.8-20.6 28.7 8.6 7 29.2-21.9 20.6-28.7-8.6z"/><path opacity=".25" enable-background="new" d="M-275.6 309.5l-6.9-29.2 21.9-20.6 28.7 8.6 6.9 29.2-21.8 20.6-28.8-8.6z"/><path opacity=".05" enable-background="new" d="M-328.3 322.8l-6.9-29.2 21.8-20.6 28.7 8.6 6.9 29.3-21.8 20.6-28.7-8.7z"/><path opacity=".3" enable-background="new" d="M-291.1 361.2l-6.9-29.2 21.9-20.6 28.7 8.6 6.9 29.2-21.8 20.6-28.8-8.6z"/><path opacity=".35" enable-background="new" d="M-312.8 270.1l-7-29.2 21.9-20.6 28.7 8.6 6.9 29.2-21.8 20.6-28.7-8.6z"/><path opacity=".25" enable-background="new" d="M-167.1-52.6l-6.9-29.2 21.8-20.7 28.7 8.7 7 29.2-21.9 20.6-28.7-8.6z"/><path opacity=".05" enable-background="new" d="M-216.5 440.9l-6.9-29.2 21.8-20.6 28.8 8.6 6.9 29.2-21.9 20.6-28.7-8.6z"/><path opacity=".25" enable-background="new" d="M-232 491.6l-6.9-29.2 21.8-20.6 28.8 8.6 6.9 29.2-21.9 20.6-28.7-8.6z"/><path opacity=".35" enable-background="new" d="M-185.5 336.4l-6.9-29.2 21.8-20.6 28.7 8.6 7 29.2-21.9 20.6-28.7-8.6z"/><path opacity=".1" enable-background="new" d="M-201 388.2l-6.9-29.2 21.8-20.6 28.7 8.6 7 29.2-21.9 20.6-28.7-8.6z"/><path opacity=".15" enable-background="new" d="M-154.5 233l-6.9-29.2 21.8-20.6 28.7 8.6 6.9 29.2-21.8 20.6-28.7-8.6z"/><path opacity=".3" enable-background="new" d="M-170 284.7l-6.9-29.2 21.8-20.6 28.7 8.6 6.9 29.2-21.8 20.6-28.7-8.6zm68.2-64.1l-6.9-29.2 21.9-20.6 28.7 8.6 6.9 29.2-21.8 20.6-28.8-8.6z"/><path opacity=".05" enable-background="new" d="M-117.3 273.3l-6.9-29.2 21.9-20.6 28.7 8.6 6.9 29.2-21.8 20.6-28.8-8.6z"/><path opacity=".15" enable-background="new" d="M-194.7 531l-6.9-29.2 21.8-20.6 28.7 8.6 6.9 29.2-21.8 20.6-28.7-8.6zm-15.5 51.7l-6.9-29.2 21.8-20.6 28.7 8.6 7 29.2-21.9 20.6-28.7-8.6z"/><path opacity=".3" enable-background="new" d="M-163.7 427.5l-6.9-29.2 21.8-20.6 28.7 8.6 6.9 29.2-21.8 20.6-28.7-8.6z"/><path opacity=".15" enable-background="new" d="M-179.2 479.2l-6.9-29.2 21.8-20.6 28.7 8.6 6.9 29.3-21.8 20.6-28.7-8.7zm46.5-155.1l-7-29.3 21.9-20.6 28.7 8.7 6.9 29.2-21.8 20.6-28.7-8.6z"/><path opacity=".25" enable-background="new" d="M-148.2 375.8l-6.9-29.2 21.8-20.6 28.7 8.6 6.9 29.2-21.8 20.6-28.7-8.6z"/><path opacity=".15" enable-background="new" d="M-247.5 543.4l-6.9-29.3 21.8-20.6 28.8 8.7 6.9 29.2-21.9 20.6-28.7-8.6z"/><path opacity=".35" enable-background="new" d="M-139 181.3l-6.9-29.3 21.8-20.6 28.7 8.6 6.9 29.3-21.8 20.6-28.7-8.6z"/><path opacity=".25" enable-background="new" d="M-77.1-25.7l-6.9-29.2 21.9-20.6 28.7 8.6 6.9 29.2-21.8 20.6-28.8-8.6z"/><path opacity=".15" enable-background="new" d="M-92.6 26.1l-6.9-29.2 21.9-20.7 28.7 8.7 6.9 29.2-21.8 20.6-28.8-8.6z"/><path opacity=".25" enable-background="new" d="M-55.3 65.4l-6.9-29.2 21.8-20.6 28.8 8.6 6.9 29.2-21.8 20.6-28.8-8.6z"/><path opacity=".15" enable-background="new" d="M-70.8 117.1l-6.9-29.2 21.8-20.6 28.8 8.6 6.9 29.2-21.8 20.6-28.8-8.6zm31-103.4l-6.9-29.2 21.8-20.6 28.8 8.6 6.9 29.2-21.8 20.6-28.8-8.6z"/><path opacity=".05" enable-background="new" d="M-108 77.8l-7-29.2 21.9-20.6 28.7 8.6 6.9 29.2-21.8 20.6-28.7-8.6z"/><path opacity=".4" enable-background="new" d="M-123.5 129.5l-7-29.2 21.9-20.6 28.7 8.6 6.9 29.2-21.8 20.6-28.7-8.6z"/><path opacity=".35" enable-background="new" d="M-358.4 425.6l-6.9-29.2 21.9-20.6 28.7 8.6 6.9 29.2-21.8 20.6-28.8-8.6z"/><path opacity=".25" enable-background="new" d="M-373.9 477.3l-6.9-29.2 21.9-20.6 28.7 8.6 6.9 29.2-21.8 20.6-28.8-8.6z"/><path opacity=".1" enable-background="new" d="M-342.9 373.9l-6.9-29.2 21.8-20.6 28.8 8.6 6.9 29.2-21.8 20.6-28.8-8.6z"/><path opacity=".15" enable-background="new" d="M-336.6 516.7l-6.9-29.2 21.8-20.6 28.8 8.6 6.9 29.2-21.8 20.6-28.8-8.6zm31-103.5l-6.9-29.2 21.8-20.6 28.8 8.6 6.9 29.2-21.9 20.6-28.7-8.6z"/><path opacity=".4" enable-background="new" d="M-321.1 464.9l-6.9-29.2 21.8-20.6 28.8 8.6 6.9 29.2-21.8 20.7-28.8-8.7z"/><path opacity=".15" enable-background="new" d="M-389.4 529.1l-6.9-29.3 21.9-20.6 28.7 8.6 6.9 29.3-21.8 20.6-28.8-8.6zm-97.2-170.1l-7-29.2 21.9-20.6 28.7 8.6 6.9 29.2-21.8 20.6-28.7-8.6z"/><path opacity=".1" enable-background="new" d="M-502.1 410.7l-6.9-29.2 21.8-20.6 28.7 8.6 6.9 29.2-21.8 20.6-28.7-8.6zm30.9-103.4l-6.9-29.3 21.9-20.6 28.7 8.7 6.9 29.2-21.8 20.6-28.8-8.6z"/><path opacity=".35" enable-background="new" d="M-464.9 450.1l-6.9-29.2 21.9-20.6 28.7 8.6 6.9 29.2-21.8 20.6-28.8-8.6z"/><path opacity=".1" enable-background="new" d="M-480.4 501.8l-6.9-29.2 21.9-20.6 28.7 8.6 6.9 29.2-21.8 20.6-28.8-8.6z"/><path opacity=".25" enable-background="new" d="M-433.9 346.6l-6.9-29.2 21.8-20.6 28.8 8.6 6.9 29.2-21.8 20.6-28.8-8.6z"/><path opacity=".3" enable-background="new" d="M-449.4 398.3l-6.9-29.2 21.8-20.6 28.8 8.6 6.9 29.2-21.8 20.6-28.8-8.6zm-68.2 64.1l-6.9-29.2 21.8-20.6 28.7 8.6 6.9 29.3-21.8 20.6-28.7-8.7z"/><path opacity=".25" enable-background="new" d="M-253.8 400.5l-6.9-29.2 21.8-20.6 28.8 8.6 6.9 29.3-21.8 20.6-28.8-8.7z"/><path opacity=".35" enable-background="new" d="M-269.3 452.3l-6.9-29.2 21.8-20.6 28.8 8.6 6.9 29.2-21.8 20.6-28.8-8.6z"/><path opacity=".05" enable-background="new" d="M-284.8 505l-6.9-29.2 21.9-20.6 28.7 8.6 6.9 29.2-21.8 20.6-28.8-8.6z"/><path opacity=".15" enable-background="new" d="M-299.3 556l-6.9-29.2 21.8-20.6 28.8 8.6 6.9 29.2-21.9 20.6-28.7-8.6z"/><path opacity=".25" enable-background="new" d="M-704 265.7l-6.9-29.2 21.8-20.6 28.7 8.6 6.9 29.2-21.8 20.6-28.7-8.6z"/><path opacity=".4" enable-background="new" d="M-666.7 305l-7-29.2 21.9-20.6 28.7 8.6 6.9 29.3-21.8 20.6-28.7-8.7z"/><path opacity=".1" enable-background="new" d="M-719.5 317.4l-6.9-29.2 21.8-20.6 28.7 8.6 7 29.2-21.9 20.6-28.7-8.6z"/><path opacity=".25" enable-background="new" d="M-682.2 356.8l-6.9-29.2 21.8-20.6 28.7 8.6 6.9 29.2-21.8 20.6-28.7-8.6z"/><path opacity=".05" enable-background="new" d="M-614 292.7l-6.9-29.2 21.8-20.6 28.8 8.6 6.9 29.2-21.8 20.6-28.8-8.6z"/><path opacity=".25" enable-background="new" d="M-576.7 332l-6.9-29.2 21.8-20.6 28.8 8.6 6.9 29.2-21.9 20.6-28.7-8.6z"/><path opacity=".3" enable-background="new" d="M-629.5 344.4l-6.9-29.2 21.9-20.6 28.7 8.6 6.9 29.2-21.8 20.6-28.8-8.6z"/><path opacity=".1" enable-background="new" d="M-592.2 383.7l-6.9-29.2 21.8-20.6 28.8 8.6 6.9 29.3-21.8 20.6-28.8-8.7z"/><path opacity=".05" enable-background="new" d="M-523.9 319.6l-6.9-29.2 21.8-20.6 28.7 8.6 6.9 29.2-21.8 20.6-28.7-8.6zm-15.5 51.8l-6.9-29.2 21.8-20.6 28.7 8.6 7 29.2-21.9 20.6-28.7-8.6z"/><path opacity=".25" enable-background="new" d="M-794.1 238.7l-6.9-29.2 21.9-20.6 28.7 8.6 6.9 29.2-21.8 20.6-28.8-8.6z"/><path opacity=".15" enable-background="new" d="M-756.8 278.1l-6.9-29.2 21.8-20.6 28.8 8.6 6.9 29.2-21.9 20.6-28.7-8.6z"/><path opacity=".3" enable-background="new" d="M-809.6 290.5l-6.9-29.3 21.9-20.6 28.7 8.7 6.9 29.2-21.8 20.6-28.8-8.6z"/><path opacity=".05" enable-background="new" d="M-772.3 330.8l-6.9-29.2 21.8-20.6 28.8 8.6 6.9 29.2-21.8 20.6-28.8-8.6z"/><path opacity=".15" enable-background="new" d="M-846.8 251.1l-6.9-29.2 21.8-20.6 28.7 8.6 6.9 29.2-21.8 20.6-28.7-8.6z"/><path opacity=".1" enable-background="new" d="M-884.1 211.8l-6.9-29.3 21.8-20.6 28.7 8.7 7 29.2-21.9 20.6-28.7-8.6z"/><path opacity=".05" enable-background="new" d="M-899.6 264.5l-6.9-29.2 21.8-20.6 28.7 8.6 7 29.2-21.9 20.6-28.7-8.6z"/><path opacity=".25" enable-background="new" d="M-862.3 302.8l-6.9-29.2 21.8-20.6 28.7 8.6 6.9 29.2-21.8 20.6-28.7-8.6z"/><path opacity=".05" enable-background="new" d="M-734.3 370.4l-6.9-29.2 21.8-20.6 28.7 8.6 6.9 29.2-21.8 20.6-28.7-8.6z"/><path opacity=".1" enable-background="new" d="M-697.1 409.8l-6.9-29.3 21.9-20.6 28.7 8.6 6.9 29.3-21.8 20.6-28.8-8.6z"/><path opacity=".15" enable-background="new" d="M-749.8 422.1l-6.9-29.2 21.8-20.6 28.7 8.6 6.9 29.2-21.8 20.6-28.7-8.6z"/><path opacity=".05" enable-background="new" d="M-644.3 396.4l-6.9-29.2 21.8-20.6 28.8 8.6 6.9 29.2-21.8 20.6-28.8-8.6z"/><path opacity=".25" enable-background="new" d="M-607 436.7l-6.9-29.2 21.8-20.6 28.7 8.6 7 29.2-21.9 20.6-28.7-8.6z"/><path opacity=".15" enable-background="new" d="M-659.8 449.1l-6.9-29.2 21.8-20.6 28.8 8.6 6.9 29.2-21.8 20.6-28.8-8.6zm105.6-24.8l-6.9-29.2 21.8-20.6 28.7 8.6 6.9 29.2-21.8 20.6-28.7-8.6z"/><path opacity=".35" enable-background="new" d="M-569.7 476.1l-6.9-29.2 21.8-20.6 28.7 8.6 6.9 29.2-21.8 20.6-28.7-8.6z"/><path opacity=".15" enable-background="new" d="M-824.4 343.4l-6.9-29.2 21.8-20.6 28.8 8.6 6.9 29.2-21.8 20.6-28.8-8.6z"/><path opacity=".25" enable-background="new" d="M-787.1 382.8l-6.9-29.2 21.8-20.6 28.8 8.6 6.9 29.2-21.9 20.6-28.7-8.6z"/><path opacity=".35" enable-background="new" d="M-839.9 395.2l-6.9-29.2 21.8-20.7 28.8 8.7 6.9 29.2-21.8 20.6-28.8-8.6z"/><path opacity=".15" enable-background="new" d="M-877.2 355.8l-6.9-29.2 21.9-20.6 28.7 8.6 6.9 29.2-21.8 20.6-28.8-8.6zm-37.2-39.3l-6.9-29.2 21.8-20.7 28.7 8.7 6.9 29.2-21.8 20.6-28.7-8.6zm-15.5 51.7l-6.9-29.2 21.8-20.6 28.7 8.6 6.9 29.2-21.8 20.6-28.7-8.6z"/><path opacity=".25" enable-background="new" d="M-86.3 168.9l-6.9-29.2 21.9-20.6 28.7 8.6 6.9 29.2-21.8 20.6-28.8-8.6z"/><path opacity=".05" enable-background="new" d="M-111 416.1l-6.9-29.2 21.9-20.6 28.7 8.6 6.9 29.2-21.8 20.6-28.8-8.6z"/><path opacity=".35" enable-background="new" d="M-126.5 466.9l-6.9-29.2 21.9-20.6 28.7 8.6 6.9 29.2-21.8 20.6-28.8-8.6z"/><path opacity=".15" enable-background="new" d="M-141.9 518.6l-7-29.2 21.9-20.6 28.7 8.6 6.9 29.2-21.8 20.6-28.7-8.6zm-15.5 51.7l-7-29.2 21.9-20.6 28.7 8.6 6.9 29.2-21.8 20.6-28.7-8.6z"/><path opacity=".1" enable-background="new" d="M-64.5 259.9l-6.9-29.2 21.8-20.6 28.8 8.6 6.9 29.3-21.8 20.6-28.8-8.7z"/><path opacity=".35" enable-background="new" d="M-80 311.7l-6.9-29.2 21.8-20.6 28.8 8.6 6.9 29.2-21.8 20.6-28.8-8.6z"/><path opacity=".15" enable-background="new" d="M-33.5 156.5l-6.9-29.2 21.8-20.6 28.8 8.6 6.9 29.2-21.9 20.6-28.7-8.6z"/><path opacity=".05" enable-background="new" d="M-49 208.2l-6.9-29.2 21.8-20.6 28.8 8.6 6.9 29.2-21.8 20.6-28.8-8.6z"/><path opacity=".1" enable-background="new" d="M-95.5 363.4l-6.9-29.2 21.9-20.6 28.7 8.6 6.9 29.2-21.8 20.6-28.8-8.6z"/><path opacity=".15" enable-background="new" d="M-18.3 105.7l-6.9-29.2 21.8-20.6 28.8 8.6 6.9 29.2-21.8 20.6-28.8-8.6zm31-103.4l-6.9-29.3 21.8-20.6 28.8 8.7 6.9 29.2-21.9 20.6-28.7-8.6z"/><path opacity=".05" enable-background="new" d="M-2.8 54l-6.9-29.2 21.8-20.6 28.8 8.6 6.9 29.2-21.9 20.6-28.7-8.6z"/><path opacity=".35" enable-background="new" d="M-381.1 334.2l-6.9-29.2 21.8-20.6 28.8 8.6 6.9 29.2-21.9 20.6-28.7-8.6z"/><path opacity=".05" enable-background="new" d="M-395.6 386.2l-7-29.2 21.9-20.6 28.7 8.6 6.9 29.2-21.8 20.7-28.7-8.7z"/><path opacity=".4" enable-background="new" d="M-411.1 438l-6.9-29.2 21.8-20.6 28.7 8.6 6.9 29.2-21.8 20.6-28.7-8.6z"/><path opacity=".15" enable-background="new" d="M-427.6 489.4l-6.9-29.2 21.8-20.6 28.8 8.6 6.9 29.2-21.8 20.6-28.8-8.6zm5.4-675l-6.9-29.2 21.8-20.6 28.8 8.6 6.9 29.2-21.9 20.6-28.7-8.6zm37.3 39.4l-6.9-29.2 21.8-20.6 28.7 8.6 6.9 29.2-21.8 20.6-28.7-8.6zm52.7-12.4l-6.9-29.2 21.9-20.6 28.7 8.6 6.9 29.2-21.8 20.6-28.8-8.6z"/><path opacity=".05" enable-background="new" d="M-294.9-119.3l-6.9-29.2 21.8-20.6 28.8 8.6 6.9 29.2-21.8 20.6-28.8-8.6z"/><path opacity=".1" enable-background="new" d="M-204.8-92.3l-6.9-29.2 21.8-20.6 28.7 8.6 6.9 29.2-21.8 20.6-28.7-8.6zm-37.3-39.3l-6.9-29.2 21.8-20.7 28.7 8.7 7 29.2-21.9 20.6-28.7-8.6z"/><path opacity=".05" enable-background="new" d="M-152.1-104.7l-6.9-29.2 21.9-20.6 28.7 8.6 6.9 29.2-21.8 20.6-28.8-8.6z"/><path opacity=".35" enable-background="new" d="M-114.8-65.3l-6.9-29.2 21.8-20.6 28.8 8.6 6.9 29.2-21.8 20.6-28.8-8.6z"/><path opacity=".05" enable-background="new" d="M-62.3-76.7l-6.9-29.3 21.8-20.6 28.8 8.7 6.9 29.2-21.9 20.6-28.7-8.6z"/><path opacity=".15" enable-background="new" d="M-99.1-116.7l-6.9-29.2 21.9-20.6 28.7 8.6 6.9 29.2-21.8 20.6-28.8-8.6z"/><path opacity=".05" enable-background="new" d="M-844.2-84.6l-6.9-29.2 21.9-20.6 28.7 8.6 6.9 29.2-21.8 20.6-28.8-8.6z"/><path opacity=".25" enable-background="new" d="M-859.6-33.9l-7-29.2 21.9-20.6 28.7 8.6 6.9 29.2-21.8 20.6-28.7-8.6z"/><path opacity=".1" enable-background="new" d="M-875.1 17.8l-7-29.2 21.9-20.6 28.7 8.6 6.9 29.2-21.8 20.6-28.7-8.6z"/><path opacity=".3" enable-background="new" d="M-713.1 461.8l-6.9-29.3 21.9-20.6 28.7 8.6 6.9 29.3-21.8 20.6-28.8-8.6z"/><path opacity=".35" enable-background="new" d="M-765.8 474.1l-6.9-29.2 21.8-20.6 28.7 8.6 6.9 29.2-21.8 20.6-28.7-8.6z"/><path opacity=".4" enable-background="new" d="M-675.8 501.1l-6.9-29.2 21.8-20.6 28.8 8.6 6.9 29.2-21.8 20.6-28.8-8.6z"/><path opacity=".1" enable-background="new" d="M-803.1 434.8l-6.9-29.2 21.8-20.6 28.8 8.6 6.9 29.2-21.9 20.6-28.7-8.6z"/><path opacity=".15" enable-background="new" d="M-855.9 447.2l-6.9-29.2 21.8-20.7 28.8 8.7 6.9 29.2-21.8 20.6-28.8-8.6z"/><path opacity=".25" enable-background="new" d="M-818.8 487.1l-6.9-29.2 21.8-20.6 28.8 8.6 6.9 29.2-21.8 20.6-28.8-8.6z"/><path opacity=".1" enable-background="new" d="M-622.8 489.1l-6.9-29.2 21.8-20.6 28.8 8.6 6.9 29.2-21.8 20.6-28.8-8.6z"/><path opacity=".4" enable-background="new" d="M-74 454.1l-6.9-29.2 21.9-20.6 28.7 8.6 6.9 29.2-21.8 20.6-28.8-8.6z"/><path opacity=".25" enable-background="new" d="M-89.5 505.9l-6.9-29.2 21.9-20.6 28.7 8.6 6.9 29.2-21.8 20.6-28.8-8.6z"/><path opacity=".15" enable-background="new" d="M-58.5 402.4l-6.9-29.2 21.9-20.6 28.7 8.6 6.9 29.2-21.8 20.6-28.8-8.6z"/><path opacity=".05" enable-background="new" d="M-173.3 622.8l-6.9-29.2 21.8-20.6 28.8 8.6 6.9 29.2-21.8 20.6-28.8-8.6zm-90-26l-6.9-29.2 21.8-20.6 28.7 8.6 6.9 29.3-21.8 20.6-28.7-8.7z"/><path opacity=".3" enable-background="new" d="M-226.1 635.2l-6.9-29.2 21.9-20.6 28.7 8.6 6.9 29.2-21.8 20.6-28.8-8.6z"/><path opacity=".05" enable-background="new" d="M-151.5 714.9l-6.9-29.2 21.8-20.6 28.8 8.6 6.9 29.2-21.9 20.6-28.7-8.6z"/><path opacity=".25" enable-background="new" d="M-167 765.6l-6.9-29.2 21.8-20.6 28.8 8.6 6.9 29.2-21.9 20.6-28.7-8.6z"/><path opacity=".35" enable-background="new" d="M-120.5 610.4l-6.9-29.2 21.8-20.6 28.7 8.6 7 29.2-21.9 20.6-28.7-8.6z"/><path opacity=".1" enable-background="new" d="M-136 662.2l-6.9-29.2 21.8-20.6 28.7 8.6 7 29.2-21.9 20.6-28.7-8.6z"/><path opacity=".15" enable-background="new" d="M-129.7 805l-6.9-29.2 21.8-20.6 28.7 8.6 6.9 29.2-21.8 20.6-28.7-8.6zm-15.5 51.7l-6.9-29.2 21.8-20.6 28.7 8.6 7 29.2-21.9 20.6-28.7-8.6z"/><path opacity=".3" enable-background="new" d="M-98.7 701.5l-6.9-29.2 21.8-20.6 28.7 8.6 6.9 29.2-21.8 20.6-28.7-8.6z"/><path opacity=".15" enable-background="new" d="M-114.2 753.2l-6.9-29.2 21.8-20.6 28.7 8.6 6.9 29.3-21.8 20.6-28.7-8.7zm46.5-155.1l-7-29.3 21.9-20.6 28.7 8.7 6.9 29.2-21.8 20.6-28.7-8.6z"/><path opacity=".25" enable-background="new" d="M-83.2 649.8l-6.9-29.2 21.8-20.6 28.7 8.6 6.9 29.2-21.8 20.6-28.7-8.6z"/><path opacity=".15" enable-background="new" d="M-182.5 817.4l-6.9-29.3 21.8-20.6 28.8 8.7 6.9 29.2-21.9 20.6-28.7-8.6z"/><path opacity=".35" enable-background="new" d="M-293.4 699.6l-6.9-29.2 21.9-20.6 28.7 8.6 6.9 29.2-21.8 20.6-28.8-8.6z"/><path opacity=".25" enable-background="new" d="M-308.9 751.3l-6.9-29.2 21.9-20.6 28.7 8.6 6.9 29.2-21.8 20.6-28.8-8.6z"/><path opacity=".1" enable-background="new" d="M-277.9 647.9l-6.9-29.2 21.8-20.6 28.8 8.6 6.9 29.2-21.8 20.6-28.8-8.6z"/><path opacity=".15" enable-background="new" d="M-271.6 790.7l-6.9-29.2 21.8-20.6 28.8 8.6 6.9 29.2-21.8 20.6-28.8-8.6zm31-103.5l-6.9-29.2 21.8-20.6 28.8 8.6 6.9 29.2-21.9 20.6-28.7-8.6z"/><path opacity=".4" enable-background="new" d="M-256.1 738.9l-6.9-29.2 21.8-20.6 28.8 8.6 6.9 29.2-21.8 20.7-28.8-8.7z"/><path opacity=".15" enable-background="new" d="M-324.4 803.1l-6.9-29.3 21.9-20.6 28.7 8.6 6.9 29.3-21.8 20.6-28.8-8.6zm-97.2-170.1l-7-29.2 21.9-20.6 28.7 8.6 6.9 29.2-21.8 20.6-28.7-8.6z"/><path opacity=".1" enable-background="new" d="M-437.1 684.7l-6.9-29.2 21.8-20.6 28.7 8.6 6.9 29.2-21.8 20.6-28.7-8.6zm30.9-103.4l-6.9-29.3 21.9-20.6 28.7 8.7 6.9 29.2-21.8 20.6-28.8-8.6z"/><path opacity=".35" enable-background="new" d="M-399.9 724.1l-6.9-29.2 21.9-20.6 28.7 8.6 6.9 29.2-21.8 20.6-28.8-8.6z"/><path opacity=".1" enable-background="new" d="M-415.4 775.8l-6.9-29.2 21.9-20.6 28.7 8.6 6.9 29.2-21.8 20.6-28.8-8.6z"/><path opacity=".25" enable-background="new" d="M-368.9 620.6l-6.9-29.2 21.8-20.6 28.8 8.6 6.9 29.2-21.8 20.6-28.8-8.6z"/><path opacity=".3" enable-background="new" d="M-384.4 672.3l-6.9-29.2 21.8-20.6 28.8 8.6 6.9 29.2-21.8 20.6-28.8-8.6zm-68.2 64.1l-6.9-29.2 21.8-20.6 28.7 8.6 6.9 29.3-21.8 20.6-28.7-8.7z"/><path opacity=".25" enable-background="new" d="M-188.8 674.5l-6.9-29.2 21.8-20.6 28.8 8.6 6.9 29.3-21.8 20.6-28.8-8.7z"/><path opacity=".35" enable-background="new" d="M-204.3 726.3l-6.9-29.2 21.8-20.6 28.8 8.6 6.9 29.2-21.8 20.6-28.8-8.6z"/><path opacity=".05" enable-background="new" d="M-219.8 779l-6.9-29.2 21.9-20.6 28.7 8.6 6.9 29.2-21.8 20.6-28.8-8.6z"/><path opacity=".15" enable-background="new" d="M-234.3 830l-6.9-29.2 21.8-20.6 28.8 8.6 6.9 29.2-21.9 20.6-28.7-8.6z"/><path opacity=".1" enable-background="new" d="M-654.5 591.4l-6.9-29.2 21.8-20.6 28.7 8.6 7 29.2-21.9 20.6-28.7-8.6z"/><path opacity=".25" enable-background="new" d="M-617.2 630.8l-6.9-29.2 21.8-20.6 28.7 8.6 6.9 29.2-21.8 20.6-28.7-8.6zm105.5-24.8l-6.9-29.2 21.8-20.6 28.8 8.6 6.9 29.2-21.9 20.6-28.7-8.6z"/><path opacity=".3" enable-background="new" d="M-564.5 618.4l-6.9-29.2 21.9-20.6 28.7 8.6 6.9 29.2-21.8 20.6-28.8-8.6z"/><path opacity=".1" enable-background="new" d="M-527.2 657.7l-6.9-29.2 21.8-20.6 28.8 8.6 6.9 29.3-21.8 20.6-28.8-8.7z"/><path opacity=".05" enable-background="new" d="M-458.9 593.6l-6.9-29.2 21.8-20.6 28.7 8.6 6.9 29.2-21.8 20.6-28.7-8.6zm-15.5 51.8l-6.9-29.2 21.8-20.6 28.7 8.6 7 29.2-21.9 20.6-28.7-8.6zm-232.9-40.6l-6.9-29.2 21.8-20.6 28.8 8.6 6.9 29.2-21.8 20.6-28.8-8.6zm38 39.6l-6.9-29.2 21.8-20.6 28.7 8.6 6.9 29.2-21.8 20.6-28.7-8.6z"/><path opacity=".1" enable-background="new" d="M-632.1 683.8l-6.9-29.3 21.9-20.6 28.7 8.6 6.9 29.3-21.8 20.6-28.8-8.6z"/><path opacity=".15" enable-background="new" d="M-684.8 696.1l-6.9-29.2 21.8-20.6 28.7 8.6 6.9 29.2-21.8 20.6-28.7-8.6z"/><path opacity=".05" enable-background="new" d="M-579.3 670.4l-6.9-29.2 21.8-20.6 28.8 8.6 6.9 29.2-21.8 20.6-28.8-8.6z"/><path opacity=".25" enable-background="new" d="M-542 710.7l-6.9-29.2 21.8-20.6 28.7 8.6 7 29.2-21.9 20.6-28.7-8.6z"/><path opacity=".15" enable-background="new" d="M-594.8 723.1l-6.9-29.2 21.8-20.6 28.8 8.6 6.9 29.2-21.8 20.6-28.8-8.6zm105.6-24.8l-6.9-29.2 21.8-20.6 28.7 8.6 6.9 29.2-21.8 20.6-28.7-8.6z"/><path opacity=".35" enable-background="new" d="M-504.7 750.1l-6.9-29.2 21.8-20.6 28.7 8.6 6.9 29.2-21.8 20.6-28.7-8.6z"/><path opacity=".15" enable-background="new" d="M-759.4 617.4l-6.9-29.2 21.8-20.6 28.8 8.6 6.9 29.2-21.8 20.6-28.8-8.6z"/><path opacity=".25" enable-background="new" d="M-722.1 656.8l-6.9-29.2 21.8-20.6 28.8 8.6 6.9 29.2-21.9 20.6-28.7-8.6z"/><path opacity=".35" enable-background="new" d="M-774.9 669.2l-6.9-29.2 21.8-20.7 28.8 8.7 6.9 29.2-21.8 20.6-28.8-8.6z"/><path opacity=".15" enable-background="new" d="M-812.2 629.8l-6.9-29.2 21.9-20.6 28.7 8.6 6.9 29.2-21.8 20.6-28.8-8.6zm-37.2-39.3l-6.9-29.2 21.8-20.7 28.7 8.7 6.9 29.2-21.8 20.6-28.7-8.6zm-15.5 51.7l-6.9-29.2 21.8-20.6 28.7 8.6 6.9 29.2-21.8 20.6-28.7-8.6z"/><path opacity=".05" enable-background="new" d="M-46 690.1l-6.9-29.2 21.9-20.6 28.7 8.6 6.9 29.2-21.8 20.6-28.8-8.6z"/><path opacity=".35" enable-background="new" d="M-61.5 740.9l-6.9-29.2 21.9-20.6 28.7 8.6 6.9 29.2-21.8 20.6-28.8-8.6z"/><path opacity=".15" enable-background="new" d="M-76.9 792.6l-7-29.2 21.9-20.6 28.7 8.6 6.9 29.2-21.8 20.6-28.7-8.6zm-15.5 51.7l-7-29.2 21.9-20.6 28.7 8.6 6.9 29.2-21.8 20.6-28.7-8.6z"/><path opacity=".35" enable-background="new" d="M-15 585.7l-6.9-29.2 21.8-20.6 28.8 8.6 6.9 29.2-21.8 20.6-28.8-8.6z"/><path opacity=".1" enable-background="new" d="M-30.5 637.4l-6.9-29.2 21.9-20.6 28.7 8.6 6.9 29.2-21.8 20.6-28.8-8.6z"/><path opacity=".35" enable-background="new" d="M-316.1 608.2l-6.9-29.2 21.8-20.6 28.8 8.6 6.9 29.2-21.9 20.6-28.7-8.6z"/><path opacity=".05" enable-background="new" d="M-330.6 660.2l-7-29.2 21.9-20.6 28.7 8.6 6.9 29.2-21.8 20.7-28.7-8.7z"/><path opacity=".4" enable-background="new" d="M-346.1 712l-6.9-29.2 21.8-20.6 28.7 8.6 6.9 29.2-21.8 20.6-28.7-8.6z"/><path opacity=".15" enable-background="new" d="M-362.6 763.4l-6.9-29.2 21.8-20.6 28.8 8.6 6.9 29.2-21.8 20.6-28.8-8.6zm5.4-675l-6.9-29.2 21.8-20.6 28.8 8.6 6.9 29.2-21.9 20.6-28.7-8.6zm37.3 39.4l-6.9-29.2 21.8-20.6 28.7 8.6 6.9 29.2-21.8 20.6-28.7-8.6zm52.7-12.4l-6.9-29.2 21.9-20.6 28.7 8.6 6.9 29.2-21.8 20.6-28.8-8.6z"/><path opacity=".3" enable-background="new" d="M-648.1 735.8l-6.9-29.3 21.9-20.6 28.7 8.6 6.9 29.3-21.8 20.6-28.8-8.6z"/><path opacity=".35" enable-background="new" d="M-700.8 748.1l-6.9-29.2 21.8-20.6 28.7 8.6 6.9 29.2-21.8 20.6-28.7-8.6z"/><path opacity=".4" enable-background="new" d="M-610.8 775.1l-6.9-29.2 21.8-20.6 28.8 8.6 6.9 29.2-21.8 20.6-28.8-8.6z"/><path opacity=".1" enable-background="new" d="M-738.1 708.8l-6.9-29.2 21.8-20.6 28.8 8.6 6.9 29.2-21.9 20.6-28.7-8.6z"/><path opacity=".15" enable-background="new" d="M-790.9 721.2l-6.9-29.2 21.8-20.7 28.8 8.7 6.9 29.2-21.8 20.6-28.8-8.6z"/><path opacity=".25" enable-background="new" d="M-753.8 761.1l-6.9-29.2 21.8-20.6 28.8 8.6 6.9 29.2-21.8 20.6-28.8-8.6z"/><path opacity=".1" enable-background="new" d="M-557.8 763.1l-6.9-29.2 21.8-20.6 28.8 8.6 6.9 29.2-21.8 20.6-28.8-8.6z"/><path opacity=".4" enable-background="new" d="M-9 728.1l-6.9-29.2 21.9-20.6 28.7 8.6 6.9 29.2-21.8 20.6-28.8-8.6z"/><path opacity=".25" enable-background="new" d="M-24.5 779.9l-6.9-29.2 21.9-20.6 28.7 8.6 6.9 29.2-21.8 20.6-28.8-8.6z"/><path opacity=".15" enable-background="new" d="M6.5 676.4l-6.9-29.2 21.9-20.6 28.7 8.6 6.9 29.2-21.8 20.6-28.8-8.6z"/><path opacity=".05" enable-background="new" d="M803.7-189.7l-6.9-29.2 21.8-20.6 28.8 8.6 6.9 29.2-21.8 20.6-28.8-8.6zm-90-26l-6.9-29.2 21.8-20.6 28.7 8.6 6.9 29.3-21.7 20.6-28.8-8.7z"/><path opacity=".3" enable-background="new" d="M750.9-177.3l-6.9-29.2 21.9-20.6 28.7 8.6 6.9 29.2-21.8 20.6-28.8-8.6z"/><path opacity=".05" enable-background="new" d="M825.5-97.6l-6.9-29.2 21.8-20.6 28.8 8.6 6.9 29.2-21.9 20.6-28.7-8.6z"/><path opacity=".25" enable-background="new" d="M810-46.9l-6.9-29.2 21.8-20.6 28.8 8.6 6.9 29.2-21.9 20.6-28.7-8.6z"/><path opacity=".35" enable-background="new" d="M856.5-202.1l-6.9-29.2 21.8-20.6 28.7 8.6 7 29.2-21.9 20.6-28.7-8.6z"/><path opacity=".1" enable-background="new" d="M841-150.3l-6.9-29.2 21.8-20.6 28.7 8.6 7 29.2-21.9 20.6-28.7-8.6z"/><path opacity=".15" enable-background="new" d="M847.3-7.5l-6.9-29.2 21.8-20.6 28.7 8.6 6.9 29.2-21.8 20.6-28.7-8.6zm-15.5 51.7l-6.9-29.2 21.8-20.6 28.7 8.6 7 29.2-21.9 20.6-28.7-8.6z"/><path opacity=".3" enable-background="new" d="M878.3-111l-6.9-29.2 21.8-20.6 28.7 8.6 6.9 29.2-21.8 20.6-28.7-8.6z"/><path opacity=".15" enable-background="new" d="M862.8-59.3l-6.9-29.2 21.8-20.6 28.7 8.6 6.9 29.3-21.8 20.6-28.7-8.7zm46.5-155.1l-7-29.3 21.9-20.6 28.7 8.7 6.9 29.2-21.8 20.6-28.7-8.6z"/><path opacity=".25" enable-background="new" d="M893.8-162.7l-6.9-29.2 21.8-20.6 28.7 8.6 6.9 29.2-21.8 20.6-28.7-8.6z"/><path opacity=".15" enable-background="new" d="M794.5 4.9l-6.9-29.3 21.8-20.6 28.8 8.7 6.9 29.2-21.9 20.6-28.7-8.6z"/><path opacity=".35" enable-background="new" d="M683.6-112.9l-6.9-29.2 21.9-20.6 28.7 8.6 6.9 29.2-21.8 20.6-28.8-8.6z"/><path opacity=".25" enable-background="new" d="M668.1-61.2l-6.9-29.2 21.9-20.6 28.7 8.6 6.9 29.2-21.8 20.6-28.8-8.6z"/><path opacity=".1" enable-background="new" d="M699.1-164.6l-6.9-29.2 21.8-20.6 28.8 8.6 6.9 29.2-21.8 20.6-28.8-8.6z"/><path opacity=".15" enable-background="new" d="M705.4-21.8l-6.9-29.2 21.8-20.6 28.8 8.6 6.9 29.2-21.8 20.6-28.8-8.6zm31-103.5l-6.9-29.2 21.8-20.6 28.8 8.6 6.9 29.2-21.9 20.6-28.7-8.6z"/><path opacity=".4" enable-background="new" d="M720.9-73.6l-6.9-29.2 21.8-20.6 28.8 8.6 6.9 29.2-21.8 20.7-28.8-8.7z"/><path opacity=".15" enable-background="new" d="M652.6-9.4l-6.9-29.3 21.9-20.6 28.7 8.6 6.9 29.3-21.8 20.6-28.8-8.6zm-97.2-170.1l-7-29.2 21.9-20.6 28.7 8.6 6.9 29.2-21.8 20.6-28.7-8.6z"/><path opacity=".1" enable-background="new" d="M539.9-127.8l-6.9-29.2 21.8-20.6 28.7 8.6 6.9 29.2-21.8 20.6-28.7-8.6zm30.9-103.4l-6.9-29.3 21.9-20.6 28.7 8.7 6.9 29.2-21.8 20.6-28.8-8.6z"/><path opacity=".35" enable-background="new" d="M577.1-88.4l-6.9-29.2 21.9-20.6 28.7 8.6 6.9 29.2-21.8 20.6-28.8-8.6z"/><path opacity=".1" enable-background="new" d="M561.6-36.7l-6.9-29.2 21.9-20.6 28.7 8.6 6.9 29.2-21.8 20.6-28.8-8.6z"/><path opacity=".25" enable-background="new" d="M608.1-191.9l-6.9-29.2 21.8-20.6 28.8 8.6 6.9 29.2-21.8 20.6-28.8-8.6z"/><path opacity=".3" enable-background="new" d="M592.6-140.2l-6.9-29.2 21.8-20.6 28.8 8.6 6.9 29.2-21.8 20.6-28.8-8.6zm-68.2 64.1l-6.9-29.2 21.8-20.6 28.7 8.6 6.9 29.3-21.8 20.6-28.7-8.7z"/><path opacity=".25" enable-background="new" d="M788.2-138l-6.9-29.2 21.8-20.6 28.8 8.6 6.9 29.3-21.8 20.6-28.8-8.7z"/><path opacity=".35" enable-background="new" d="M772.7-86.2l-6.9-29.2 21.8-20.6 28.8 8.6 6.9 29.2-21.8 20.6-28.8-8.6z"/><path opacity=".05" enable-background="new" d="M757.2-33.5l-6.9-29.2 21.9-20.6 28.7 8.6 6.9 29.2-21.8 20.6-28.8-8.6z"/><path opacity=".15" enable-background="new" d="M742.7 17.5l-6.9-29.2 21.8-20.6 28.8 8.6 6.9 29.2-21.9 20.6-28.7-8.6z"/><path opacity=".1" enable-background="new" d="M322.5-221.1l-6.9-29.2 21.8-20.6 28.7 8.6 7 29.2-21.9 20.6-28.7-8.6z"/><path opacity=".25" enable-background="new" d="M359.8-181.7l-6.9-29.2 21.8-20.6 28.7 8.6 6.9 29.2-21.8 20.6-28.7-8.6zm105.5-24.8l-6.9-29.2 21.8-20.6 28.8 8.6 6.9 29.2-21.9 20.6-28.7-8.6z"/><path opacity=".3" enable-background="new" d="M412.5-194.1l-6.9-29.2 21.9-20.6 28.7 8.6 6.9 29.2-21.8 20.6-28.8-8.6z"/><path opacity=".1" enable-background="new" d="M449.8-154.8l-6.9-29.2 21.8-20.6 28.8 8.6 6.9 29.3-21.8 20.6-28.8-8.7z"/><path opacity=".05" enable-background="new" d="M518.1-218.9l-6.9-29.2 21.8-20.6 28.7 8.6 6.9 29.2-21.8 20.6-28.7-8.6zm-15.5 51.8l-6.9-29.2 21.8-20.6 28.7 8.6 7 29.2-21.9 20.6-28.7-8.6zm-232.9-40.6l-6.9-29.2 21.8-20.6 28.8 8.6 6.9 29.2-21.8 20.6-28.8-8.6zm38 39.6l-6.9-29.2 21.8-20.6 28.7 8.6 6.9 29.2-21.8 20.6-28.7-8.6z"/><path opacity=".1" enable-background="new" d="M344.9-128.7l-6.9-29.3 21.9-20.6 28.7 8.6 6.9 29.3-21.8 20.6-28.8-8.6z"/><path opacity=".15" enable-background="new" d="M292.2-116.4l-6.9-29.2 21.8-20.6 28.7 8.6 6.9 29.2-21.8 20.6-28.7-8.6z"/><path opacity=".05" enable-background="new" d="M397.7-142.1l-6.9-29.2 21.8-20.6 28.8 8.6 6.9 29.2-21.8 20.6-28.8-8.6z"/><path opacity=".25" enable-background="new" d="M435-101.8l-6.9-29.2 21.8-20.6 28.7 8.6 7 29.2-21.9 20.6-28.7-8.6z"/><path opacity=".15" enable-background="new" d="M382.2-89.4l-6.9-29.2 21.8-20.6 28.8 8.6 6.9 29.2-21.8 20.6-28.8-8.6zm105.6-24.8l-6.9-29.2 21.8-20.6 28.7 8.6 6.9 29.2-21.8 20.6-28.7-8.6z"/><path opacity=".35" enable-background="new" d="M472.3-62.4l-6.9-29.2 21.8-20.6 28.7 8.6 6.9 29.2-21.8 20.6-28.7-8.6z"/><path opacity=".15" enable-background="new" d="M217.6-195.1l-6.9-29.2 21.8-20.6 28.8 8.6 6.9 29.2-21.8 20.6-28.8-8.6z"/><path opacity=".25" enable-background="new" d="M254.9-155.7l-6.9-29.2 21.8-20.6 28.8 8.6 6.9 29.2-21.9 20.6-28.7-8.6z"/><path opacity=".35" enable-background="new" d="M202.1-143.3l-6.9-29.2 21.8-20.7 28.8 8.7 6.9 29.2-21.8 20.6-28.8-8.6z"/><path opacity=".15" enable-background="new" d="M164.8-182.7l-6.9-29.2 21.9-20.6 28.7 8.6 6.9 29.2-21.8 20.6-28.8-8.6zm-37.2-39.3l-6.9-29.2 21.8-20.7 28.7 8.7 6.9 29.2-21.8 20.6-28.7-8.6zm-15.5 51.7l-6.9-29.2 21.8-20.6 28.7 8.6 6.9 29.2-21.8 20.6-28.7-8.6z"/><path opacity=".05" enable-background="new" d="M931-122.4l-6.9-29.2 21.9-20.6 28.7 8.6 6.9 29.2-21.8 20.6-28.8-8.6z"/><path opacity=".35" enable-background="new" d="M915.5-71.6l-6.9-29.2 21.9-20.6 28.7 8.6 6.9 29.2-21.8 20.6-28.8-8.6z"/><path opacity=".15" enable-background="new" d="M900.1-19.9l-7-29.2 21.9-20.6 28.7 8.6 6.9 29.2-21.8 20.6-28.7-8.6zm-15.5 51.7l-7-29.2 21.9-20.6 28.7 8.6 6.9 29.2-21.8 20.6-28.7-8.6z"/><path opacity=".35" enable-background="new" d="M962-226.8l-6.9-29.2 21.8-20.6 28.8 8.6 6.9 29.2-21.8 20.6-28.8-8.6z"/><path opacity=".1" enable-background="new" d="M946.5-175.1l-6.9-29.2 21.9-20.6 28.7 8.6 6.9 29.2-21.8 20.6-28.8-8.6z"/><path opacity=".35" enable-background="new" d="M660.9-204.3l-6.9-29.2 21.8-20.6 28.8 8.6 6.9 29.2-21.9 20.6-28.7-8.6z"/><path opacity=".05" enable-background="new" d="M646.4-152.3l-7-29.2 21.9-20.6 28.7 8.6 6.9 29.2-21.8 20.7-28.7-8.7z"/><path opacity=".4" enable-background="new" d="M630.9-100.5l-6.9-29.2 21.8-20.6 28.7 8.6 6.9 29.2-21.8 20.6-28.7-8.6z"/><path opacity=".15" enable-background="new" d="M614.4-49.1l-6.9-29.2 21.8-20.6 28.8 8.6 6.9 29.2-21.8 20.6-28.8-8.6zm5.4-675l-6.9-29.2 21.8-20.6 28.8 8.6 6.9 29.2-21.9 20.6-28.7-8.6zm37.3 39.4l-6.9-29.2 21.8-20.6 28.7 8.6 6.9 29.2-21.8 20.6-28.7-8.6zm52.7-12.4l-6.9-29.2 21.9-20.6 28.7 8.6 6.9 29.2-21.8 20.6-28.8-8.6z"/><path opacity=".3" enable-background="new" d="M328.9-76.7l-6.9-29.3 21.9-20.6 28.7 8.6 6.9 29.3-21.8 20.6-28.8-8.6z"/><path opacity=".35" enable-background="new" d="M276.2-64.4l-6.9-29.2 21.8-20.6 28.7 8.6 6.9 29.2-21.8 20.6-28.7-8.6z"/><path opacity=".4" enable-background="new" d="M366.2-37.4l-6.9-29.2 21.8-20.6 28.8 8.6 6.9 29.2-21.8 20.6-28.8-8.6z"/><path opacity=".1" enable-background="new" d="M238.9-103.7l-6.9-29.2 21.8-20.6 28.8 8.6 6.9 29.2-21.9 20.6-28.7-8.6z"/><path opacity=".15" enable-background="new" d="M186.1-91.3l-6.9-29.2 21.8-20.7 28.8 8.7 6.9 29.2-21.8 20.6-28.8-8.6z"/><path opacity=".25" enable-background="new" d="M223.2-51.4l-6.9-29.2 21.8-20.6 28.8 8.6 6.9 29.2-21.8 20.6-28.8-8.6z"/><path opacity=".1" enable-background="new" d="M419.2-49.4l-6.9-29.2 21.8-20.6 28.8 8.6 6.9 29.2-21.8 20.6-28.8-8.6z"/><path opacity=".4" enable-background="new" d="M968-84.4l-6.9-29.2 21.9-20.6 28.7 8.6 6.9 29.2-21.8 20.6-28.8-8.6z"/><path opacity=".25" enable-background="new" d="M952.5-32.6l-6.9-29.2 21.9-20.6 28.7 8.6 6.9 29.2-21.8 20.6-28.8-8.6z"/><path opacity=".15" enable-background="new" d="M983.5-136.1l-6.9-29.2 21.9-20.6 28.7 8.6 6.9 29.2-21.8 20.6-28.8-8.6zm-1314.8-21.1l-6.9-29.2 21.8-20.6 28.8 8.6 6.9 29.2-21.9 20.6-28.7-8.6zm-15.5 51.8l-6.9-29.2 21.8-20.6 28.8 8.6 6.9 29.2-21.9 20.6-28.7-8.6zm-37.3-39.5l-6.9-29.2 21.9-20.6 28.7 8.6 6.9 29.2-21.8 20.6-28.8-8.6zm-15.5 51.8l-6.9-29.3 21.9-20.6 28.7 8.6 6.9 29.3-21.8 20.6-28.8-8.6zm158.4-37.1l-7-29.2 21.9-20.6 28.7 8.6 6.9 29.2-21.8 20.6-28.7-8.6zm189.7 676.9l-6.9-29.2 21.8-20.6 28.8 8.6 6.9 29.2-21.8 20.6-28.8-8.6zm5.4-675.1l-6.9-29.2 21.8-20.6 28.8 8.6 6.9 29.2-21.9 20.6-28.7-8.6zm37.3 39.5l-6.9-29.2 21.8-20.6 28.7 8.6 6.9 29.2-21.8 20.6-28.7-8.6zm52.7-12.4l-6.9-29.3 21.9-20.6 28.7 8.6 6.9 29.2-21.7 20.6-28.9-8.5z"/><path opacity=".1" enable-background="new" d="M-143.3-301.9l-6.9-29.2 21.8-20.6 28.7 8.6 7 29.2-21.9 20.6-28.7-8.6z"/><path opacity=".25" enable-background="new" d="M-106-262.5l-6.9-29.2 21.8-20.6 28.7 8.6 6.9 29.2-21.8 20.6-28.7-8.6zm105.5-24.7l-6.9-29.2 21.8-20.6 28.8 8.6 6.9 29.2-21.9 20.6-28.7-8.6z"/><path opacity=".3" enable-background="new" d="M-53.3-274.9l-6.9-29.2 21.9-20.6 28.7 8.6 6.9 29.2-21.8 20.6-28.8-8.6z"/><path opacity=".1" enable-background="new" d="M-16-235.5l-6.9-29.2 21.8-20.6 28.8 8.6 6.9 29.3-21.8 20.6-28.8-8.7z"/><path opacity=".05" enable-background="new" d="M-196.1-288.5l-6.9-29.2 21.8-20.6 28.8 8.6 6.9 29.2-21.8 20.6-28.8-8.6zm38 39.6l-6.9-29.2 21.8-20.6 28.7 8.6 6.9 29.2-21.8 20.6-28.7-8.6z"/><path opacity=".1" enable-background="new" d="M-120.9-209.5l-6.9-29.3 21.9-20.6 28.7 8.6 6.9 29.3-21.8 20.6-28.8-8.6z"/><path opacity=".15" enable-background="new" d="M-173.6-197.2l-6.9-29.2 21.8-20.6 28.7 8.6 6.9 29.2-21.8 20.6-28.7-8.6z"/><path opacity=".05" enable-background="new" d="M-68.1-222.8l-6.9-29.2 21.8-20.6 28.8 8.6 6.9 29.2-21.8 20.6-28.8-8.6z"/><path opacity=".25" enable-background="new" d="M-30.8-182.5l-6.9-29.2 21.8-20.6 28.7 8.6 7 29.2-21.9 20.5-28.7-8.5z"/><path opacity=".15" enable-background="new" d="M-83.6-170.2l-6.9-29.2 21.8-20.6 28.8 8.6 6.9 29.2-21.8 20.6-28.8-8.6zm105.6-24.8l-6.9-29.2 21.8-20.6 28.7 8.6 6.9 29.2-21.8 20.6-28.7-8.6z"/><path opacity=".35" enable-background="new" d="M6.5-143.2l-6.9-29.2 21.8-20.6 28.7 8.6 6.9 29.2-21.8 20.6-28.7-8.6z"/><path opacity=".15" enable-background="new" d="M-248.2-275.9l-6.9-29.2 21.8-20.6 28.8 8.6 6.9 29.2-21.8 20.6-28.8-8.6z"/><path opacity=".25" enable-background="new" d="M-210.9-236.5l-6.9-29.2 21.8-20.6 28.8 8.6 6.9 29.2-21.9 20.6-28.7-8.6z"/><path opacity=".35" enable-background="new" d="M-263.7-224l-6.9-29.2 21.8-20.7 28.8 8.7 6.9 29.2-21.8 20.6-28.8-8.6z"/><path opacity=".15" enable-background="new" d="M-301-263.5l-6.9-29.2 21.9-20.6 28.7 8.6 6.9 29.2-21.8 20.6-28.8-8.6zm-37.2-39.3l-6.9-29.2 21.8-20.7 28.7 8.7 6.9 29.2-21.8 20.6-28.7-8.6zm-15.5 51.8l-6.9-29.2 21.8-20.6 28.7 8.6 6.9 29.2-21.8 20.6-28.7-8.6z"/><path opacity=".3" enable-background="new" d="M-136.9-157.5l-6.9-29.3 21.9-20.6 28.7 8.6 6.9 29.3-21.8 20.6-28.8-8.6z"/><path opacity=".35" enable-background="new" d="M-189.6-145.2l-6.9-29.2 21.8-20.6 28.7 8.6 6.9 29.2-21.8 20.6-28.7-8.6z"/><path opacity=".4" enable-background="new" d="M-99.6-118.2l-6.9-29.2 21.8-20.6 28.8 8.6 6.9 29.2-21.8 20.6-28.8-8.6z"/><path opacity=".1" enable-background="new" d="M-226.9-184.5l-6.9-29.2 21.8-20.6 28.8 8.6 6.9 29.2-21.9 20.6-28.7-8.6z"/><path opacity=".15" enable-background="new" d="M-279.7-172l-6.9-29.2 21.8-20.7 28.8 8.7 6.9 29.2-21.8 20.6-28.8-8.6z"/><path opacity=".25" enable-background="new" d="M-242.6-132.2l-6.9-29.2 21.8-20.6 28.8 8.6 6.9 29.2-21.8 20.6-28.8-8.6z"/><path opacity=".1" enable-background="new" d="M-46.6-130.2l-6.9-29.2 21.8-20.6 28.8 8.6 6.9 29.2-21.8 20.6-28.8-8.6z"/></svg>