<svg xmlns="http://www.w3.org/2000/svg" viewBox="0 0 59.8 34.8" enable-background="new 0 0 59.8 34.8"><path d="M39.3 11.3c1.4-.4 2.2-1 2.1-2.7 0-.6-.3-1-.6-1-.6 0-1.2 1.3-1.2 1.4l-.1.2c-.3.7-.6 1.4-.5 1.9 0 .1.1.2.3.2zm-34.6-7.3h.8v.8h-.8zm-1.5-4h.8v.8h-.8zm2.1 1.7h1v1h-1zm-2.2.4h1.2v1.2h-1.2zm56.6 15.6c-.1-.1-.2-.2-.5-.2-.5 0-1.2.4-1.9.7-.3.2-.8.4-.9.4-.1 0-.2-.3-.3-.7l-.1-.4c-.5-1.1-1.1-2.2-1.6-3.2-.1-.1-.2-.3-.2-.5-.1-.4-.3-.8-.6-1-.2-.2-1-.4-1.4-.4-.5 0-.7.2-.7.4-.1.3 0 .6.1.8 0 .1.1.2.1.2 0 .1 0 .4-.1.7-.1.5-.4 1-.6 1.3 0 0-.1.1-.1.2-.3.3-.5.6-.6.8l-.3-.1c-.1 0-.3 0-.5.2-.3.3-.4 1-.4 1.6-.2.3-.5.6-.7 1.1-.1.2-.3.5-.4.6-.4.5-1.2 1-2.3 1-.8 0-1.6-.3-2.2-.9-.3-.3-.5-.7-.5-1.2 0-1.3.9-3 1.7-3.9.5-.4 1-.7 1.3-.7.1 0 .2 0 .3.1.4.2.3.3.1.8-.2.4-.4.8-.3 1.2 0 .1.1.2.2.2.3.2.5.3.8.4.1.1.3 0 .4-.1.9-1 1.2-2.2.8-3.2-.4-1-1.6-1.5-3-1.2-2 .3-3.9 2.2-4.5 4.6l-.1.4c-.1.2-.2.4-.4.6-.5.8-1.1 1.9-1.8 2.2-.2.4-.4.5-.5.5h-.1c-.1-.1 0-.6.1-1 0-.1 0-.2.1-.4.2-.8.4-1.6.7-2.3.4-1 .7-2 .8-3.1 0-.4-.1-.7-.4-1-.2-.2-.5-.4-.8-.4-.3 0-.6.2-.7.5 0 0-1.6 3.2-1.9 5.8-.1.1-.2.2-.3.4-.6.8-1.4 1.9-2.2 2.1-.5.2-.9.1-1.1-.2-.3-.4-.4-1-.2-1.6.3-1.1.6-2.3.9-3.5.5-1.1.8-2.2 1.1-3.3l2.4-.4c.3 0 .5 0 .8-.1h.6c.1 0 .2-.1.3-.2.2-.3.1-.6 0-.9-.3-.4-.8-.7-1.3-.7h-.1c-.6 0-1.3 0-2 .1v-.1c.3-1 .5-1.8.5-2.5 0-.6-.1-1-.3-1.4-.3-.5-.9-.8-1.4-.6-.6.2-.9 1-1 1.4-.2.5-.3 1-.4 1.5-.3.6-.6 1.3-.8 2.1h-1c-.7.1-1.8.1-2.4.3-.4.1-.7.4-.8.7 0 .1-.1.4.1.6.2.5.9.8 1.2.9l.4.1c.4 0 1-.1 1.5-.2h.1l-.3 1.2c-.2.8-.3 1.5-.4 2.1-.3.5-.6 1-.9 1.4-.4.6-1.1 1.2-1.7 1.8-.1.1-.2.2-.3.2.1-1.8.3-3 .7-4.9v-.1c0-.1 0-.2-.1-.3l-.4-.8c-.1-.1-.1-.1-.2-.1h-.3c-.1 0-.2.1-.3.2-.5.8-.8 1.6-1.2 2.3-.5 1.1-1 2.2-1.9 3.4-.4.5-1.2.9-1.9.9-.3 0-.5-.1-.7-.2l-.1-.4c0-.1-.1-.2-.1-.2v-.1c-.1-1.5.8-4.6 1.4-6.1.2-.5.4-1.1.1-1.5-.2-.2-.4-.4-.8-.4h-.2c-1.1.1-2.1 2.5-2.1 2.5-.6 1.4-1.2 4.2-.9 6.2-.6.4-1.3.6-1.9.6-.7-.1-1.6-.2-3.2-1.6 1.9-3.8 2.4-6.6 2.7-8.9 0-.3.1-.7.3-.8.2-.1.6-.1.8-.1h.1c.9 0 1.8-.2 2.5-.3 1.2-.3 2.4-.8 3.6-1.6 1-.7 2.3-1.9 2.5-3.5.1-1.1-.2-1.9-.8-2.5-.7-.8-1.8-1.2-2.8-1.1-1.8.1-3.6.9-4.8 2.1-.8.8-1.7 2-2.3 2.9l-.3.6c-.2.5-.5 1.1-.8 1.1-2.2.1-3.5-.5-4.6-1.6v-1.1h-.9v-1.3h-1.3v1.3h-1v1.1h.9v1h.7c1.2 1.4 3.4 2.8 5.8 2.8h.3c-.5 3.2-1.3 6.2-1.9 7.5-.2.5-.5 1.1-.9 1.1-.1 0-.1 0-.2-.1-.3-.1-.7-.4-1.1-.6-.5-.3-1.1-.7-1.6-.9-1.5-.6-2.5-1-3.5-1.1-1.7-.2-3.7.5-4.1 2.3-.3 1.4.6 3.3 1.8 4.1 1.7 1.1 3.3 1.6 4.7 1.6 1.2 0 2.4-.4 3.4-1.1l.4-.4 1.1-.9.5.4.6.5c1.2.8 2.4 1.2 3.2 1.2h.5c.9 0 1.7-.2 2.5-.7.5.5 1.1.7 1.5.7 1.6 0 3.4-1.7 4.6-3v.1c-.2.9-.3 1.7-.8 2.5-.2.4-.6.8-1 1.2l-.4.5c-.4.4-1.7 2-2.8 3.7-.8 1.3-1.5 2.7-1.2 4 .2.7.7 1.3 1.5 1.8.5.3 1 .4 1.5.4 1.9 0 3-2.2 3.4-3.6.5-1.4.6-2.5.7-3.7.1-.6.1-1.1.2-1.8 0-.2.1-.4.1-.5.1-.8.2-1.6.7-2 .6-.5 1.2-1.1 1.7-1.6l.1-.1c.2-.2.4-.4.7-.6.1-.1.3-.2.4-.4.1.7.4 1.2.7 1.7.6.8 1.5 1.3 2.5 1.3.9 0 1.8-.4 2.5-1.1.1-.1.3-.4.6-.8.1.2.3.4.5.6.8.6 1.3.8 1.9.8.8 0 1.4-.5 2.3-1.4.1-.1.2-.3.4-.6.1.2.2.4.3.5.7 1 1.7 1.6 2.8 1.8.5.1.9.1 1.3.1 1.7 0 2.9-.6 4.2-2 .2.4.5.7.8 1 .7.7 2 1.1 3 1.1 1.4 0 2.4-.7 2.8-2 .2-.9.2-.9 1.1-1.2.6-.2 2.1-.9 2.2-2 .3 0 .3-.2.2-.4zm-38.7-14.7c.4-.1.8-.2 1.2-.2.5 0 .8.1 1 .3.1.1.1.3.1.6-.1.8-.6 1.5-1.5 2.1-1.5 1.2-3.6 1.6-5.3 1.8.8-1.7 2.2-3.6 4.5-4.6zm-13.6 2.6h-.8v-.7h.8v.7zm-2.1 15.8c-1.2-.1-2.6-1-3.1-2-.2-.5-.2-.9.1-1.2.3-.3.6-.4 1.2-.4 1.9 0 4.8 1.7 5.9 2.3-.6 1-1.9 1.4-4.1 1.3zm18.6 5.9c-.2.9-.3 1.8-.5 2.5-.3 1.3-.8 2.2-2 2.6h-.3c-.3 0-.4-.1-.4-.1-.1-.2-.2-.9 1.6-3.6l.1-.1c.6-.8 1.2-1.7 1.8-2.4-.1.3-.2.7-.3 1.1zm28.9-10.6s0-.1.1-.1c.7.9 1.2 1.7 1.6 2.7-.7 0-1.4-.1-2-.4-.2-.1-.3-.2-.4-.4-.2-.5.3-1.2.7-1.8zm1.7 4.6c0 .2-.2.6-.8.6-.6 0-1.3-.3-1.5-.5-.3-.2-.5-.8-.7-1.3.7.4 1.7.9 2.5 1h.6c-.1.1-.1.1-.1.2z" fill="#3f403f"/></svg>